<?xml version="1.0" encoding="utf-8"?>
<!-- Generator: Adobe Illustrator 18.1.1, SVG Export Plug-In . SVG Version: 6.00 Build 0)  -->
<svg version="1.1" id="Layer_1" xmlns="http://www.w3.org/2000/svg" xmlns:xlink="http://www.w3.org/1999/xlink" x="0px" y="0px"
	 viewBox="0 0 269.1 125.1" enable-background="new 0 0 269.1 125.1" xml:space="preserve">
<g>
	<radialGradient id="SVGID_1_" cx="48.0872" cy="79.8937" r="37.5435" gradientUnits="userSpaceOnUse">
		<stop  offset="0" style="stop-color:#00AEEF"/>
		<stop  offset="0.1215" style="stop-color:#009DDE"/>
		<stop  offset="0.3737" style="stop-color:#007CBC"/>
		<stop  offset="0.7311" style="stop-color:#004D8F"/>
		<stop  offset="1" style="stop-color:#172671"/>
	</radialGradient>
	<path fill="url(#SVGID_1_)" d="M82.8,92.9c-0.8-12.2-8.3-22.5-8.3-22.5C56.3,41.4,64,27.6,64,27.6c-16.4,8.5-30.3,22.3-36.1,30.5
		C12.2,80.2,16.6,97.6,20,105.2C39.7,102.6,60.7,78.3,82.8,92.9z"/>
	<linearGradient id="SVGID_2_" gradientUnits="userSpaceOnUse" x1="99.1094" y1="87.0634" x2="56.7795" y2="78.022">
		<stop  offset="0" style="stop-color:#FFFFFF"/>
		<stop  offset="1" style="stop-color:#FFFFFF;stop-opacity:0"/>
	</linearGradient>
	<path fill="url(#SVGID_2_)" d="M71.6,88.5c-0.8-6.4-6.1-12.4-6.1-12.4c-5.6-6.5-7.1-12.8-7.9-15.8c-1.2-4-0.4-8.4-1.4-9
		c-5.5-3.4-16.4,14.2-19.3,19.9c-7,13.7-4.3,23.6-1.6,28.8C46.9,94.5,59.1,86.8,71.6,88.5z"/>
	<radialGradient id="SVGID_3_" cx="15.3465" cy="69.3454" r="30.8615" gradientUnits="userSpaceOnUse">
		<stop  offset="0" style="stop-color:#FFFFFF"/>
		<stop  offset="1" style="stop-color:#FFFFFF;stop-opacity:0"/>
	</radialGradient>
	<path fill="url(#SVGID_3_)" d="M28.4,103c-2.8-6.7-8.1-25.4,7-45.3c3.9-5.1,11.4-13.1,20.9-19.8c-11,7-19.9,16.3-24.3,22
		c-14.8,19.5-10.8,36.8-7.6,44.4C25.7,103.9,27.1,103.5,28.4,103z"/>
	<path fill="#FFFFFF" d="M33.9,79.3c0.5,0.8,1,1.7,1.5,2.6l0.1,0.1c1.8,2.4,3.8,3.2,5.7,3.9c0.9,0.4,1.8,0.7,2.5,1.2
		c0.3,0.3,0.7,0.9,0.8,1.2c0.1,0.5,0.1,1.2,0.1,1.9h0c-0.1,0.4-0.1,0.9-0.1,1.4c0,0.4,0,0.8,0,1.1l-0.2-0.1l-0.1,1.8
		c0,0.2,0,0.4,0,0.7c0,0.3-0.1,0.6-0.1,1c-0.1,0.4-0.1,0.8-0.2,1.2c1.5-0.7,3-1.5,4.5-2.1c0-0.1,0-0.1,0-0.2c0.3-2.5,0.8-4,1.2-4.7
		c6.8,0.9,12-3.6,16.5-14.2c2-4.7,4.8-8.1,6.6-9l-3-0.3l-3.9-0.2c-10.2,0.6-16.1,4.4-18.2,11.8c-0.1-0.8-0.2-1.4-0.2-1.7
		c0.1-0.3,0.1-0.5,0.2-0.7c0.1-0.5,0.2-0.8,0.4-1.1l0.1-0.2c1.7-3.2,3-5.8,4-8.5c1.1-2.5,2.3-4.5,3.2-5.3l3-2.4l-3.8-0.1
		c-0.1,0-0.2,0-0.4,0c-4.1,0-9.1,1.8-9.4,10.5c0,0.2,0,0.3,0,0.5c-0.5-1.7-0.6-3.1-0.7-4.4c-0.2-2.7-0.4-5.2-3.5-8.5l-2.4-1.7
		c0.5,1.5,0.8,6.3,1,8.1c0.3,2.6,0.7,5.5,2.1,8.3c-2.9-2.9-7.1-4.4-13.6-4.9l-4.4-0.3l3.4,2.8C29.3,71.4,31,74.4,33.9,79.3z"/>
	<g>
		<radialGradient id="SVGID_4_" cx="94.5268" cy="110.7165" r="58.045" gradientUnits="userSpaceOnUse">
			<stop  offset="0" style="stop-color:#80C342"/>
			<stop  offset="0.662" style="stop-color:#007B36"/>
			<stop  offset="1" style="stop-color:#005D2C"/>
		</radialGradient>
		<path fill="url(#SVGID_4_)" d="M80.7,105.7c1.4-3.1,2.1-6.3,1.6-9.1c-20.5-7.3-41.5,13.3-60,13c0.1,0.1,0.2,0.2,0.2,0.3
			C40,111.7,61.4,91.5,80.7,105.7z"/>
		<radialGradient id="SVGID_5_" cx="94.5269" cy="110.7164" r="58.045" gradientUnits="userSpaceOnUse">
			<stop  offset="0" style="stop-color:#80C342"/>
			<stop  offset="0.662" style="stop-color:#007B36"/>
			<stop  offset="1" style="stop-color:#005D2C"/>
		</radialGradient>
		<path fill="url(#SVGID_5_)" d="M24.5,112.5c18.4,23,43.3,7.4,43.3,7.4c5.2-3.3,9.6-7.9,12.2-12.7C61.3,98.9,40.7,115.1,24.5,112.5
			z"/>
	</g>
	
		<radialGradient id="SVGID_6_" cx="86.634" cy="50.2148" r="36.8573" gradientTransform="matrix(1.0213 0 0 1.0341 -0.2186 -3.4887)" gradientUnits="userSpaceOnUse">
		<stop  offset="0" style="stop-color:#FFDE17"/>
		<stop  offset="1" style="stop-color:#F15A29"/>
	</radialGradient>
	<path fill="url(#SVGID_6_)" d="M101.9,75c0,0.7,0,1.4,0,2.2c0,0.8-0.1,1.7-0.1,2.6c0,0.6-0.2,1.1-0.4,1.5c-0.3,0.4-0.8,0.6-1.6,0.7
		c-0.4,0-0.7,0.1-1.1,0.1s-0.7,0-0.9,0c-0.2,0-0.3,0.1-0.3,0.4c0,0.1,0.1,0.2,0.2,0.3C97.6,83,97.8,83,98,83c1.2,0,2.3,0,3.4-0.1
		c1,0,1.9-0.1,2.5-0.1c0.5,0,1.3,0,2.4,0.1c1.1,0,2.3,0,3.6,0c0.2,0,0.4,0,0.5-0.1c0.1-0.1,0.2-0.1,0.2-0.3c0-0.1,0-0.2-0.1-0.3
		c-0.1-0.1-0.2-0.1-0.3-0.1c-0.2,0-0.5,0-0.9,0c-0.4,0-0.7-0.1-1-0.1c-0.7-0.1-1.1-0.4-1.4-0.8c-0.2-0.4-0.4-0.9-0.4-1.5
		c-0.1-0.9-0.1-1.8-0.1-2.6c0-0.8,0-1.6,0-2.2l3.8,0c0.4,0,0.6,0,0.8-0.1c0.2-0.1,0.3-0.2,0.4-0.4c0.2-0.3,0.3-0.7,0.5-1.3
		c0.2-0.6,0.2-1,0.3-1.2c0-0.2,0-0.3-0.1-0.4c-0.1-0.1-0.2-0.1-0.3-0.1c-0.1,0-0.3,0.1-0.6,0.2c-0.3,0.1-0.7,0.2-1.3,0.2l-3.3,0
		l0-13c0-1.3,0-2.6,0-3.7c0-1.1,0-1.9,0-2.2c0-0.2,0-0.4-0.1-0.5c-0.1-0.1-0.2-0.2-0.4-0.2c-0.2,0-0.4,0.1-0.6,0.2
		c-0.2,0.1-0.4,0.3-0.5,0.5c-0.1,0.1-0.7,0.9-1.8,2.2c-1.1,1.4-2.5,3-4.1,5c-1.6,2-3.2,4-4.8,5.9c-1.6,2-3,3.6-4.1,5
		c-1.1,1.4-1.7,2.1-1.8,2.2c-0.1,0.1-0.2,0.2-0.3,0.4c-0.1,0.2-0.2,0.4-0.2,0.6c0,0.2,0.1,0.4,0.3,0.5c0.2,0.1,0.5,0.1,0.7,0.1
		L101.9,75z M101.9,71.9l-9.7,0c0.4-0.5,1.1-1.3,2-2.5c0.9-1.2,1.9-2.5,3-3.9c1.1-1.4,2-2.6,2.9-3.8c0.9-1.1,1.4-1.9,1.7-2.2l0.1,0
		L101.9,71.9z"/>
	<g>
		<linearGradient id="SVGID_7_" gradientUnits="userSpaceOnUse" x1="123.8515" y1="53.1313" x2="123.8515" y2="88.5021">
			<stop  offset="0" style="stop-color:#80C342"/>
			<stop  offset="0.662" style="stop-color:#007B36"/>
			<stop  offset="1" style="stop-color:#005D2C"/>
		</linearGradient>
		<path fill="url(#SVGID_7_)" d="M122.3,83.4c1,0,2-0.1,3-0.3c1-0.2,2-0.6,2.9-1.1c1.3-0.8,2.2-1.7,2.7-2.8c0.5-1,0.7-2.1,0.7-3.1
			c0-1.6-0.5-3-1.5-4.3c-1-1.3-2.6-2.7-4.9-4.2l-1.1-0.7c-1.6-1-2.6-1.9-3.2-2.6c-0.6-0.7-0.9-1.5-0.9-2.2c0-1,0.4-1.9,1.1-2.5
			c0.8-0.6,1.9-1,3.3-1c1.2,0,2.1,0.2,2.8,0.6c0.6,0.4,1.1,0.7,1.4,1.1c0.4,0.5,0.7,0.9,0.8,1.3c0.1,0.4,0.2,0.7,0.2,0.9
			c0,0.4,0.1,0.6,0.4,0.6c0.1,0,0.3-0.1,0.3-0.2c0.1-0.2,0.1-0.4,0.1-0.8c0-1.3,0-2.2,0-2.8c0-0.6,0-1,0-1.2c0-0.1-0.1-0.2-0.1-0.3
			c-0.1-0.1-0.2-0.1-0.4-0.1c-0.5-0.1-1.1-0.3-2-0.4c-0.8-0.1-1.8-0.2-3.1-0.2c-2.6,0-4.7,0.6-6.2,1.8c-1.5,1.2-2.3,2.7-2.3,4.6
			c0,1.3,0.5,2.7,1.3,3.9c0.9,1.3,2.4,2.6,4.4,4l1.8,1.2c1.5,1.1,2.6,2,3.1,2.9c0.5,0.9,0.8,1.7,0.7,2.5c0,0.9-0.4,1.8-1.2,2.6
			s-2.1,1.2-3.8,1.3c-1.2,0-2.3-0.2-3.3-0.8c-1-0.5-1.7-1.4-2.2-2.6c-0.1-0.3-0.2-0.6-0.3-0.9c-0.1-0.3-0.1-0.6-0.1-0.8
			c0-0.1,0-0.3-0.1-0.4c0-0.1-0.2-0.2-0.3-0.2c-0.1,0-0.3,0.1-0.3,0.2s-0.1,0.4-0.1,0.6c0,0.3,0,0.9-0.1,1.7c0,0.8,0,1.7,0,2.7
			c0,0.4,0.1,0.6,0.2,0.8s0.3,0.3,0.6,0.4c0.8,0.3,1.7,0.5,2.5,0.7C120.3,83.3,121.2,83.4,122.3,83.4z"/>
	</g>
	<g>
		<linearGradient id="SVGID_8_" gradientUnits="userSpaceOnUse" x1="142.307" y1="53.1313" x2="142.307" y2="88.5022">
			<stop  offset="0" style="stop-color:#80C342"/>
			<stop  offset="0.662" style="stop-color:#007B36"/>
			<stop  offset="1" style="stop-color:#005D2C"/>
		</linearGradient>
		<path fill="url(#SVGID_8_)" d="M136.1,73.1c0,1.6,0,3,0,4.2c0,1.2-0.1,2.2-0.1,3c-0.1,0.5-0.1,0.9-0.3,1.2
			c-0.1,0.3-0.3,0.5-0.7,0.6c-0.1,0-0.3,0.1-0.5,0.1c-0.2,0-0.4,0-0.6,0c-0.2,0-0.3,0-0.4,0.1c-0.1,0-0.1,0.1-0.1,0.2
			c0,0.2,0.2,0.3,0.6,0.3c0.3,0,0.7,0,1.1,0c0.4,0,0.8,0,1.1,0c0.4,0,0.7,0,1.1,0s0.6,0,0.8,0c0.5,0,1,0,1.5,0c0.5,0,1.1,0,1.8,0.1
			c0.7,0,4.1,0.1,5,0.1c0.9,0,2,0,3.1,0c0.6,0,1,0,1.2-0.1c0.2-0.1,0.4-0.3,0.5-0.8c0.1-0.2,0.1-0.6,0.2-1.1c0.1-0.5,0.1-1,0.2-1.5
			c0-0.5,0.1-0.9,0.1-1.2c0-0.2,0-0.3,0-0.4c0-0.1-0.1-0.2-0.2-0.2c-0.1,0-0.2,0-0.2,0.1c0,0.1-0.1,0.2-0.1,0.4
			c-0.1,0.7-0.3,1.2-0.5,1.6c-0.2,0.4-0.5,0.7-0.9,0.9c-0.4,0.2-0.9,0.3-1.5,0.4c-0.6,0-1.1,0.1-1.5,0.1c-1.6,0-5.3-0.2-5.8-0.6
			c-0.5-0.4-0.7-1.1-0.7-2.3c0-0.4,0-0.9,0-1.5c0-0.7,0-1.3,0-2c0-0.7,0-1.2,0-1.6l0-2.7c0-0.1,0-0.2,0-0.2c0-0.1,0.1-0.1,0.2-0.1
			c0.3,0,0.7,0,1.4,0c0.6,0,1.3,0,1.9,0c0.6,0,3.7,0.1,3.9,0.1c0.6,0.1,1,0.2,1.3,0.4c0.3,0.2,0.4,0.5,0.5,0.9
			c0,0.2,0.1,0.4,0.1,0.6c0,0.2,0,0.4,0,0.6c0,0.1,0,0.2,0.1,0.2c0,0.1,0.1,0.1,0.2,0.1c0.1,0,0.2-0.1,0.3-0.2c0-0.1,0-0.3,0-0.4
			c0-0.2,0-0.5,0.1-1s0.1-0.9,0.1-1.3c0.1-0.8,0.1-1.4,0.2-1.8c0.1-0.4,0.1-0.6,0.1-0.7c0-0.1,0-0.2-0.1-0.2c0,0-0.1-0.1-0.2-0.1
			c-0.1,0-0.2,0-0.2,0.1c-0.1,0.1-0.2,0.2-0.3,0.3c-0.1,0.2-0.3,0.3-0.6,0.4c-0.2,0.1-0.6,0.1-0.9,0.2c-0.3,0-0.8,0-1.5,0.1
			c-0.7,0-4.1,0-4.8,0c-0.7,0-1.2,0-1.5,0c-0.1,0-0.2,0-0.2-0.1c0-0.1,0-0.2,0-0.3l0-8.5c0-0.1,0-0.2,0.1-0.3c0-0.1,0.1-0.1,0.2-0.1
			c0.2,0,0.7,0,1.3,0c0.6,0,1.3,0,1.9,0c0.6,0,3.7,0.1,3.9,0.1c0.8,0.1,1.3,0.2,1.6,0.4c0.3,0.2,0.5,0.5,0.6,0.8
			c0.1,0.2,0.1,0.4,0.2,0.7c0,0.2,0,0.4,0,0.5c0,0.2,0,0.3,0.1,0.3c0,0.1,0.1,0.1,0.2,0.1c0.1,0,0.2,0,0.2-0.1s0.1-0.2,0.1-0.2
			c0-0.2,0.1-0.6,0.1-1.1c0-0.5,0.1-0.9,0.1-1.1c0.1-0.8,0.1-1.3,0.2-1.6c0.1-0.3,0.1-0.5,0.1-0.6c0-0.1,0-0.2,0-0.2
			c0-0.1-0.1-0.1-0.2-0.1c-0.1,0-0.2,0-0.3,0.1c-0.1,0-0.2,0.1-0.3,0.1c-0.1,0-0.3,0.1-0.6,0.1c-0.2,0-0.5,0.1-0.8,0.1
			c-0.2,0-0.6,0-1.4,0c-0.7,0-4.2,0-5.1,0c-0.9,0-1.8,0-2.6,0c-0.8,0-1.3,0-1.6,0c-0.2,0-0.5,0-0.9,0c-0.3,0-0.7,0-1.1,0
			c-0.4,0-0.8,0-1.3,0c-0.4,0-0.9,0-1.3,0c-0.2,0-0.4,0-0.5,0.1c-0.1,0-0.2,0.1-0.2,0.2c0,0.1,0,0.2,0.1,0.2c0.1,0,0.2,0.1,0.4,0.1
			c0.2,0,0.5,0,0.7,0c0.2,0,0.4,0,0.6,0.1c0.5,0.1,0.9,0.3,1.1,0.6c0.2,0.3,0.3,0.7,0.3,1.3c0,0.3,0,0.7,0,1.2c0,0.5,0,1.1,0,2.1
			c0,0.9,0,2.2,0,3.9L136.1,73.1z"/>
	</g>
	<g>
		<linearGradient id="SVGID_9_" gradientUnits="userSpaceOnUse" x1="166.7249" y1="53.1313" x2="166.7249" y2="88.5021">
			<stop  offset="0" style="stop-color:#80C342"/>
			<stop  offset="0.662" style="stop-color:#007B36"/>
			<stop  offset="1" style="stop-color:#005D2C"/>
		</linearGradient>
		<path fill="url(#SVGID_9_)" d="M169.3,74c0.1,0,0.1,0,0.2,0.1c0.1,0,0.1,0.1,0.1,0.2l2.5,7.1c0.1,0.2,0.1,0.4,0,0.5
			c-0.1,0.1-0.2,0.2-0.3,0.3c-0.2,0-0.3,0-0.3,0.1c-0.1,0-0.1,0.1-0.1,0.2c0,0.1,0.1,0.2,0.3,0.2c0.2,0,0.4,0,0.7,0.1
			c1.3,0,2.5,0,3.5,0c1.1,0,1.9,0,2.5,0c0.6,0,1,0,1.2-0.1c0.2,0,0.3-0.1,0.3-0.3c0-0.1,0-0.2-0.1-0.2c-0.1,0-0.2,0-0.3,0
			c-0.2,0-0.4,0-0.6,0c-0.2,0-0.5-0.1-0.7-0.1c-0.3-0.1-0.7-0.3-1.2-0.8c-0.5-0.5-1-1.4-1.6-2.9c-0.5-1.3-1.2-3-2-5.1
			c-0.8-2.1-1.6-4.2-2.4-6.4c-0.8-2.2-1.6-4.1-2.2-5.8c-0.6-1.7-1.1-2.8-1.3-3.3c-0.2-0.4-0.3-0.7-0.4-0.8c-0.1-0.2-0.2-0.3-0.4-0.2
			c-0.2,0-0.3,0.1-0.4,0.3c-0.1,0.2-0.3,0.6-0.5,1l-8.1,21.1c-0.3,0.9-0.7,1.5-1.1,2.1c-0.4,0.5-1,0.9-1.7,1c-0.1,0-0.3,0-0.5,0
			c-0.2,0-0.4,0-0.5,0c-0.1,0-0.2,0-0.3,0.1c-0.1,0-0.1,0.1-0.1,0.2c0,0.1,0,0.2,0.1,0.3c0.1,0,0.3,0.1,0.5,0.1c0.9,0,1.7,0,2.4-0.1
			c0.7,0,1.2,0,1.4-0.1c0.5,0,1.1,0,1.7,0c0.6,0,1.2,0,1.7,0c0.2,0,0.3,0,0.4-0.1c0.1,0,0.1-0.1,0.1-0.3c0-0.1,0-0.2-0.1-0.2
			c-0.1,0-0.2-0.1-0.4-0.1l-0.5,0c-0.5,0-0.8-0.1-1-0.3c-0.2-0.2-0.3-0.4-0.3-0.7c0-0.2,0-0.5,0.1-0.9c0.1-0.4,0.2-0.8,0.4-1.2
			l1.7-4.8c0-0.1,0.1-0.2,0.1-0.2c0,0,0.1-0.1,0.2-0.1L169.3,74z M162.8,72.3c-0.1,0-0.1,0-0.1-0.1c0,0,0-0.1,0-0.2l3-8.3
			c0-0.1,0-0.1,0.1-0.2c0-0.1,0.1-0.1,0.1-0.1c0,0,0.1,0,0.1,0.1c0,0.1,0,0.1,0.1,0.2l2.8,8.3c0,0.1,0,0.1,0,0.1
			c0,0-0.1,0.1-0.2,0.1L162.8,72.3z"/>
	</g>
	<g>
		<linearGradient id="SVGID_10_" gradientUnits="userSpaceOnUse" x1="188.6003" y1="53.1312" x2="188.6003" y2="88.5021">
			<stop  offset="0" style="stop-color:#80C342"/>
			<stop  offset="0.662" style="stop-color:#007B36"/>
			<stop  offset="1" style="stop-color:#005D2C"/>
		</linearGradient>
		<path fill="url(#SVGID_10_)" d="M187.4,83.2c0.9,0,1.9-0.1,2.8-0.3c0.9-0.2,1.9-0.6,2.7-1.1c1.2-0.8,2-1.7,2.5-2.8
			c0.4-1,0.6-2.1,0.5-3.1c-0.1-1.6-0.6-3-1.5-4.3c-1-1.3-2.5-2.7-4.7-4.2l-1-0.7c-1.5-1-2.5-1.9-3.1-2.6c-0.6-0.7-0.9-1.5-0.9-2.2
			c0-1,0.3-1.9,1-2.5c0.7-0.6,1.7-1,3-1c1.1,0,2,0.2,2.6,0.6c0.6,0.4,1.1,0.7,1.3,1.1c0.4,0.5,0.7,0.9,0.8,1.3
			c0.2,0.4,0.2,0.7,0.2,0.9c0,0.4,0.1,0.6,0.4,0.6c0.1,0,0.2-0.1,0.3-0.2c0.1-0.2,0.1-0.4,0-0.8c-0.1-1.3-0.1-2.2-0.1-2.8
			c0-0.6,0-1,0-1.2c0-0.1-0.1-0.2-0.1-0.3c-0.1-0.1-0.2-0.1-0.4-0.1c-0.5-0.1-1.1-0.2-1.9-0.4c-0.8-0.1-1.7-0.2-2.9-0.2
			c-2.5,0-4.4,0.6-5.8,1.8c-1.4,1.2-2.1,2.7-2,4.6c0,1.3,0.5,2.7,1.4,3.9c0.9,1.3,2.3,2.6,4.3,4l1.7,1.2c1.5,1.1,2.5,2,3,2.9
			c0.5,0.9,0.8,1.7,0.8,2.5c0,0.9-0.3,1.8-1,2.6c-0.7,0.8-1.9,1.2-3.5,1.3c-1.1,0-2.2-0.2-3.1-0.8c-0.9-0.5-1.7-1.4-2.1-2.6
			c-0.1-0.3-0.2-0.6-0.3-0.9c-0.1-0.3-0.1-0.6-0.1-0.8c0-0.1,0-0.3-0.1-0.4c0-0.1-0.2-0.2-0.3-0.2c-0.1,0-0.2,0.1-0.3,0.2
			c-0.1,0.2-0.1,0.4-0.1,0.6c0,0.3,0,0.9,0,1.7c0,0.8,0,1.7,0.1,2.7c0,0.4,0.1,0.6,0.2,0.8c0.1,0.2,0.3,0.3,0.6,0.4
			c0.8,0.3,1.6,0.5,2.4,0.7C185.4,83.1,186.3,83.2,187.4,83.2z"/>
	</g>
	<g>
		<linearGradient id="SVGID_11_" gradientUnits="userSpaceOnUse" x1="261.7483" y1="53.1312" x2="261.7483" y2="88.5021">
			<stop  offset="0" style="stop-color:#80C342"/>
			<stop  offset="0.662" style="stop-color:#007B36"/>
			<stop  offset="1" style="stop-color:#005D2C"/>
		</linearGradient>
		<path fill="url(#SVGID_11_)" d="M260.5,83.2c0.9,0,1.9-0.1,2.8-0.3c0.9-0.2,1.9-0.6,2.7-1.1c1.2-0.8,2-1.7,2.5-2.8
			c0.4-1,0.6-2.1,0.5-3.1c-0.1-1.6-0.6-3-1.5-4.3c-1-1.3-2.5-2.7-4.7-4.2l-1-0.7c-1.5-1-2.5-1.9-3.1-2.6c-0.6-0.7-0.9-1.5-0.9-2.2
			c0-1,0.3-1.9,1-2.5c0.7-0.6,1.7-1,3-1c1.1,0,2,0.2,2.6,0.6c0.6,0.4,1.1,0.7,1.3,1.1c0.4,0.5,0.7,0.9,0.8,1.3
			c0.2,0.4,0.2,0.7,0.2,0.9c0,0.4,0.1,0.6,0.4,0.6c0.1,0,0.2-0.1,0.3-0.2c0.1-0.2,0.1-0.4,0-0.8c-0.1-1.3-0.1-2.2-0.1-2.8
			c0-0.6,0-1,0-1.2c0-0.1-0.1-0.2-0.1-0.3c-0.1-0.1-0.2-0.1-0.4-0.1c-0.5-0.1-1.1-0.2-1.9-0.4c-0.8-0.1-1.7-0.2-2.9-0.2
			c-2.5,0-4.4,0.6-5.8,1.8c-1.4,1.2-2.1,2.7-2,4.6c0,1.3,0.5,2.7,1.4,3.9c0.9,1.3,2.3,2.6,4.3,4l1.7,1.2c1.5,1.1,2.5,2,3,2.9
			c0.5,0.9,0.8,1.7,0.8,2.5c0,0.9-0.3,1.8-1,2.6c-0.7,0.8-1.9,1.2-3.5,1.3c-1.1,0-2.2-0.2-3.1-0.8c-0.9-0.5-1.7-1.4-2.1-2.6
			c-0.1-0.3-0.2-0.6-0.3-0.9c-0.1-0.3-0.1-0.6-0.1-0.8c0-0.1,0-0.3-0.1-0.4c0-0.1-0.2-0.2-0.3-0.2c-0.1,0-0.2,0.1-0.3,0.2
			c-0.1,0.2-0.1,0.4-0.1,0.6c0,0.3,0,0.9,0,1.7c0,0.8,0,1.7,0.1,2.7c0,0.4,0.1,0.6,0.2,0.8c0.1,0.2,0.3,0.3,0.6,0.4
			c0.8,0.3,1.6,0.5,2.4,0.7C258.6,83.1,259.5,83.2,260.5,83.2z"/>
	</g>
	<g>
		<linearGradient id="SVGID_12_" gradientUnits="userSpaceOnUse" x1="210.8289" y1="53.1312" x2="210.8289" y2="88.5022">
			<stop  offset="0" style="stop-color:#80C342"/>
			<stop  offset="0.662" style="stop-color:#007B36"/>
			<stop  offset="1" style="stop-color:#005D2C"/>
		</linearGradient>
		<path fill="url(#SVGID_12_)" d="M210.6,83.1c2.7,0,5.1-0.7,7-1.9c2-1.2,3.5-2.9,4.6-4.9c1.1-2.1,1.6-4.4,1.6-7
			c0-3.9-1.2-6.9-3.4-9.2c-2.3-2.2-5.4-3.3-9.4-3.4c-2.4,0-4.4,0.5-6.1,1.3c-1.7,0.8-3,1.9-4.1,3.2c-1,1.3-1.8,2.7-2.3,4.3
			c-0.5,1.5-0.7,3-0.7,4.5c0,2,0.4,4.1,1.3,6.1c0.9,2,2.3,3.7,4.1,5S207.6,83,210.6,83.1z M212,81.4c-2.1,0-3.8-0.6-5.3-1.7
			c-1.5-1.1-2.6-2.6-3.3-4.5c-0.8-1.9-1.2-4-1.2-6.4c0-2.8,0.4-4.9,1.2-6.5c0.8-1.5,1.8-2.6,3-3.2s2.4-0.9,3.7-0.9
			c1.8,0,3.3,0.5,4.7,1.5c1.4,1,2.5,2.4,3.3,4.2c0.8,1.8,1.2,4,1.2,6.5c-0.1,3.2-0.5,5.6-1.4,7.1c-0.9,1.6-1.9,2.6-3.1,3.1
			C213.7,81.2,212.8,81.4,212,81.4z"/>
	</g>
	<g>
		<linearGradient id="SVGID_13_" gradientUnits="userSpaceOnUse" x1="238.5235" y1="53.1312" x2="238.5235" y2="88.5022">
			<stop  offset="0" style="stop-color:#80C342"/>
			<stop  offset="0.662" style="stop-color:#007B36"/>
			<stop  offset="1" style="stop-color:#005D2C"/>
		</linearGradient>
		<path fill="url(#SVGID_13_)" d="M230.3,63.8L230.3,63.8c0.3,0.2,0.8,0.8,1.5,1.7c0.8,0.9,1.7,1.9,2.7,3.1c1.1,1.2,2.2,2.4,3.4,3.7
			c1.1,1.2,2.3,2.4,3.5,3.6c1.2,1.3,2.3,2.4,3.3,3.5c1,1.1,1.9,2,2.6,2.7c0.2,0.2,0.4,0.4,0.5,0.5c0.2,0.1,0.4,0.2,0.5,0.2
			c0.1,0,0.2-0.1,0.3-0.2c0.1-0.2,0.1-0.4,0.1-0.8l0.4-21.2c0-0.9,0.1-1.6,0.3-2s0.5-0.7,0.9-0.8c0.2,0,0.4-0.1,0.5-0.1
			c0.1,0,0.3,0,0.5,0c0.4,0,0.6-0.1,0.6-0.3c0-0.1-0.1-0.2-0.2-0.2c-0.1,0-0.3-0.1-0.5,0c-0.8,0-1.5,0-2,0.1c-0.6,0-0.9,0-1.1,0.1
			c-0.3,0-0.9,0-1.6,0c-0.7,0-1.5,0-2.3,0c-0.2,0-0.4,0-0.6,0.1c-0.2,0-0.2,0.1-0.2,0.3c0,0.1,0,0.2,0.1,0.2c0.1,0,0.2,0.1,0.4,0.1
			c0.2,0,0.5,0,0.8,0c0.3,0,0.6,0.1,0.9,0.2c0.4,0.1,0.6,0.4,0.8,0.9c0.2,0.4,0.3,1.2,0.3,2.2L247,76l-0.2,0
			c-0.2-0.2-0.7-0.8-1.6-1.7c-0.8-0.9-1.8-1.9-2.8-3.1c-1-1.1-1.9-2.1-2.7-2.9c-1.6-1.7-3.1-3.3-4.5-4.8c-1.4-1.6-2.7-2.9-3.6-4
			c-1-1.1-1.5-1.7-1.7-1.9c-0.3-0.3-0.5-0.6-0.7-0.7c-0.2-0.2-0.3-0.3-0.5-0.3c-0.2,0-0.3,0.1-0.3,0.3c-0.1,0.2-0.1,0.5-0.1,0.8
			L228,77.6c0,1.4-0.1,2.5-0.2,3.1c-0.1,0.6-0.4,1-0.8,1.1c-0.2,0.1-0.5,0.1-0.7,0.1c-0.3,0-0.5,0-0.7,0c-0.2,0-0.3,0-0.4,0.1
			c-0.1,0-0.1,0.1-0.1,0.2c0,0.1,0.1,0.2,0.2,0.3c0.1,0,0.3,0.1,0.5,0.1c0.9,0,1.6,0,2.2-0.1c0.6,0,1,0,1.2-0.1c0.3,0,0.8,0,1.4,0
			c0.7,0,1.5,0,2.5,0c0.2,0,0.4,0,0.5-0.1c0.1,0,0.2-0.1,0.2-0.3c0-0.1,0-0.2-0.1-0.2c-0.1,0-0.2-0.1-0.4-0.1c-0.3,0-0.5,0-0.8,0
			c-0.3,0-0.6-0.1-0.8-0.2c-0.3-0.1-0.6-0.4-0.8-1c-0.2-0.6-0.3-1.5-0.3-2.8L230.3,63.8z"/>
	</g>
	<path d="M111,89.4c-0.1-0.3-0.3-0.5-0.6-0.7c-0.2-0.2-0.5-0.4-0.9-0.5c-0.3-0.1-0.8-0.2-1.2-0.3c-0.5-0.1-1-0.1-1.6-0.1h-3.3
		c-0.8,0-1.4,0.1-1.9,0.1c-0.5,0.1-1,0.3-1.3,0.5c-0.4,0.2-0.7,0.5-0.9,0.8c-0.2,0.3-0.3,0.7-0.4,1.1c-0.1,0.4-0.1,0.9-0.1,1.4
		c0,0.5,0,1.1,0,1.7s0,1.2,0,1.7c0,0.5,0.1,1,0.1,1.4c0.1,0.4,0.2,0.8,0.4,1.1c0.2,0.3,0.5,0.6,0.9,0.8c0.4,0.2,0.8,0.4,1.3,0.5
		c0.5,0.1,1.2,0.1,1.9,0.1h3.3c0.6,0,1.2,0,1.6-0.1c0.5-0.1,0.9-0.2,1.2-0.3c0.4-0.1,0.7-0.3,0.9-0.5c0.2-0.2,0.4-0.5,0.6-0.8
		c0.1-0.3,0.2-0.6,0.3-1c0.1-0.4,0.1-0.8,0.1-1.2v-2h-6.6v1.6h4.9v0.4c0,0.3,0,0.7,0,0.9c0,0.2-0.1,0.5-0.2,0.6
		c-0.1,0.2-0.2,0.3-0.3,0.4c-0.1,0.1-0.3,0.2-0.5,0.2c-0.2,0.1-0.5,0.1-0.8,0.1c-0.3,0-0.7,0-1.2,0h-3.3c-0.5,0-1,0-1.4,0
		c-0.3,0-0.6-0.1-0.8-0.2c-0.2-0.1-0.3-0.2-0.4-0.4c-0.1-0.2-0.2-0.4-0.2-0.7c-0.1-0.3-0.1-0.7-0.1-1.1c0-0.5,0-1,0-1.7
		c0-0.6,0-1.2,0-1.7c0-0.5,0-0.8,0.1-1.1c0.1-0.3,0.1-0.5,0.2-0.7c0.1-0.2,0.3-0.3,0.5-0.4c0.2-0.1,0.5-0.2,0.8-0.2
		c0.4,0,0.8,0,1.4,0h3.3c0.6,0,1.1,0,1.5,0.1c0.4,0,0.7,0.1,0.9,0.3c0.2,0.1,0.4,0.3,0.4,0.6c0.1,0.3,0.2,0.7,0.2,1.2v0.3h1.7v-0.3
		c0-0.4,0-0.8-0.1-1.1C111.3,90,111.2,89.6,111,89.4z"/>
	<path d="M127.8,89.5c-0.1-0.3-0.3-0.5-0.5-0.7c-0.2-0.2-0.5-0.3-0.9-0.5c-0.3-0.1-0.8-0.2-1.3-0.3c-0.5-0.1-1.2-0.1-1.9-0.1h-7.2
		v10.9h1.7v-4.1h5.3c0.5,0,1,0,1.4,0c0.4,0,0.7,0.1,0.9,0.1c0.2,0,0.4,0.1,0.5,0.2c0.1,0.1,0.2,0.2,0.2,0.3c0.1,0.1,0.1,0.3,0.1,0.5
		c0,0.2,0,0.5,0,0.8v2.2h1.7v-2.2c0-0.4,0-0.7-0.1-1c0-0.3-0.1-0.6-0.2-0.9c-0.1-0.3-0.3-0.5-0.6-0.6c0,0-0.1,0-0.1-0.1
		c0,0,0.1-0.1,0.1-0.1c0.3-0.2,0.5-0.4,0.6-0.6c0.2-0.3,0.3-0.6,0.3-0.9c0.1-0.3,0.1-0.7,0.1-1.2c0-0.3,0-0.7,0-0.9
		C128,90,127.9,89.7,127.8,89.5z M126.3,91.2c0,0.3,0,0.6,0,0.8c0,0.2,0,0.4-0.1,0.5c0,0.1-0.1,0.2-0.2,0.3
		c-0.1,0.1-0.3,0.1-0.5,0.2c-0.2,0.1-0.5,0.1-0.9,0.1c-0.4,0-0.8,0-1.4,0h-5.5v-3.6h5.5c0.5,0,1,0,1.4,0c0.4,0,0.7,0,0.9,0.1
		c0.2,0,0.4,0.1,0.5,0.2c0.1,0.1,0.2,0.1,0.2,0.2c0.1,0.1,0.1,0.3,0.1,0.4C126.3,90.7,126.3,90.9,126.3,91.2z"/>
	<path d="M144.5,90.3c-0.1-0.4-0.2-0.8-0.4-1.1c-0.2-0.3-0.5-0.6-0.9-0.8c-0.4-0.2-0.8-0.4-1.3-0.5c-0.5-0.1-1.2-0.1-1.9-0.1h-3.7
		c-0.8,0-1.4,0.1-1.9,0.1c-0.5,0.1-1,0.3-1.3,0.5c-0.4,0.2-0.7,0.5-0.9,0.8c-0.2,0.3-0.3,0.7-0.4,1.1c-0.1,0.4-0.1,0.9-0.1,1.4
		c0,0.5,0,1.1,0,1.7s0,1.2,0,1.7c0,0.5,0.1,1,0.1,1.4c0.1,0.4,0.2,0.8,0.4,1.1c0.2,0.3,0.5,0.6,0.9,0.8c0.4,0.2,0.8,0.4,1.3,0.5
		c0.5,0.1,1.2,0.1,1.9,0.1h3.7c0.8,0,1.4-0.1,1.9-0.1c0.5-0.1,1-0.3,1.3-0.5c0.4-0.2,0.7-0.5,0.9-0.8c0.2-0.3,0.3-0.7,0.4-1.1
		c0.1-0.4,0.1-0.9,0.2-1.4c0-0.5,0-1.1,0-1.7s0-1.2,0-1.7C144.6,91.2,144.6,90.7,144.5,90.3z M142.9,93.4c0,0.6,0,1.2,0,1.7
		c0,0.5,0,0.8-0.1,1.1c-0.1,0.3-0.1,0.5-0.2,0.7c-0.1,0.2-0.3,0.3-0.5,0.4c-0.2,0.1-0.5,0.2-0.8,0.2c-0.4,0-0.8,0-1.3,0h-3.7
		c-0.5,0-1,0-1.4,0c-0.3,0-0.6-0.1-0.8-0.2c-0.2-0.1-0.3-0.2-0.4-0.4c-0.1-0.2-0.2-0.4-0.2-0.7c-0.1-0.3-0.1-0.7-0.1-1.1
		c0-0.5,0-1,0-1.7c0-0.6,0-1.2,0-1.7c0-0.5,0-0.8,0.1-1.1c0.1-0.3,0.1-0.5,0.2-0.7c0.1-0.2,0.3-0.3,0.5-0.4c0.2-0.1,0.5-0.2,0.8-0.2
		c0.4,0,0.8,0,1.4,0h3.7c0.5,0,1,0,1.4,0c0.3,0,0.6,0.1,0.8,0.2c0.2,0.1,0.3,0.2,0.4,0.4c0.1,0.2,0.2,0.4,0.2,0.7
		c0.1,0.3,0.1,0.7,0.1,1.1C142.9,92.2,142.9,92.7,142.9,93.4z"/>
	<polygon points="162.6,96.8 158.8,87.9 157,87.9 153.2,96.9 149.1,88.1 149.1,87.9 147.1,87.9 152,98.7 152.1,98.8 154.2,98.8 
		157.9,90.1 161.6,98.8 163.6,98.8 168.1,87.9 166.3,87.9 	"/>
	<path d="M187.6,89.1c-0.1-0.2-0.3-0.4-0.6-0.6c-0.2-0.2-0.5-0.3-0.9-0.4c-0.3-0.1-0.8-0.2-1.2-0.2c-0.5,0-1-0.1-1.6-0.1H182
		c-0.8,0-1.4,0-2,0.1c-0.6,0.1-1.1,0.2-1.5,0.3c-0.4,0.1-0.8,0.3-1,0.5c-0.3,0.2-0.5,0.4-0.7,0.7c-0.2,0.2-0.3,0.5-0.3,0.8
		c-0.1,0.3-0.1,0.6-0.1,0.9c0,0.3,0,0.6,0.1,0.9c0,0.3,0.1,0.6,0.2,0.8c0.1,0.2,0.3,0.5,0.6,0.6c0.2,0.2,0.6,0.3,0.9,0.5
		c0.4,0.1,0.8,0.2,1.4,0.3c0.5,0.1,1.2,0.1,2,0.1h1.7c0.7,0,1.2,0,1.6,0.1c0.4,0.1,0.7,0.1,0.9,0.3c0.2,0.1,0.3,0.3,0.4,0.4
		c0.1,0.2,0.1,0.5,0.1,0.8c0,0.3-0.1,0.6-0.1,0.8c-0.1,0.2-0.3,0.4-0.5,0.5c-0.3,0.1-0.6,0.2-1,0.3c-0.5,0.1-1,0.1-1.7,0.1h-1.6
		c-0.6,0-1.1,0-1.5,0c-0.4,0-0.7-0.1-0.9-0.2c-0.2-0.1-0.3-0.2-0.4-0.4c-0.1-0.2-0.1-0.5-0.1-0.9v-0.3h-1.7V96c0,0.3,0,0.7,0.1,0.9
		c0.1,0.3,0.2,0.6,0.3,0.8c0.1,0.2,0.3,0.4,0.6,0.6c0.2,0.2,0.5,0.3,0.9,0.4c0.3,0.1,0.8,0.2,1.2,0.2c0.5,0.1,1,0.1,1.6,0.1h1.6
		c0.7,0,1.3,0,1.8-0.1c0.5-0.1,1-0.2,1.4-0.3c0.4-0.1,0.7-0.3,1-0.5c0.3-0.2,0.5-0.4,0.6-0.7c0.2-0.3,0.3-0.5,0.3-0.8
		c0.1-0.3,0.1-0.6,0.1-0.9c0-0.3,0-0.6,0-0.9c0-0.3-0.1-0.6-0.2-0.8c-0.1-0.2-0.3-0.5-0.5-0.7c-0.2-0.2-0.5-0.4-0.9-0.5
		c-0.3-0.1-0.8-0.2-1.3-0.3c-0.5-0.1-1.1-0.1-1.8-0.1h-1.7c-0.5,0-1,0-1.4,0c-0.4,0-0.7-0.1-1-0.1c-0.2-0.1-0.4-0.1-0.6-0.2
		c-0.1-0.1-0.2-0.2-0.3-0.3c-0.1-0.1-0.1-0.2-0.1-0.4c0-0.2,0-0.3,0-0.6c0-0.3,0.1-0.6,0.2-0.8c0.1-0.2,0.3-0.3,0.5-0.5
		c0.3-0.1,0.7-0.2,1.2-0.3c0.5-0.1,1.2-0.1,2-0.1h1.2c0.6,0,1.1,0,1.5,0c0.4,0,0.7,0.1,0.9,0.2c0.2,0.1,0.3,0.2,0.4,0.4
		c0.1,0.2,0.1,0.5,0.1,0.8V91h1.7v-0.3c0-0.3,0-0.7-0.1-0.9C187.8,89.6,187.7,89.3,187.6,89.1z"/>
	<polygon points="197.3,92.9 193,88 192.9,87.9 190.6,87.9 196.4,94.3 196.4,98.8 198.2,98.8 198.2,94.3 204,87.9 201.7,87.9 	"/>
	<path d="M217.9,89.1c-0.1-0.2-0.3-0.4-0.6-0.6c-0.2-0.2-0.5-0.3-0.9-0.4c-0.3-0.1-0.8-0.2-1.2-0.2c-0.5,0-1-0.1-1.6-0.1h-1.2
		c-0.8,0-1.4,0-2,0.1c-0.6,0.1-1.1,0.2-1.5,0.3c-0.4,0.1-0.8,0.3-1,0.5c-0.3,0.2-0.5,0.4-0.7,0.7c-0.2,0.2-0.3,0.5-0.3,0.8
		c-0.1,0.3-0.1,0.6-0.1,0.9c0,0.3,0,0.6,0.1,0.9c0,0.3,0.1,0.6,0.2,0.8c0.1,0.2,0.3,0.5,0.6,0.6c0.2,0.2,0.6,0.3,0.9,0.5
		c0.4,0.1,0.8,0.2,1.4,0.3c0.5,0.1,1.2,0.1,2,0.1h1.7c0.7,0,1.2,0,1.6,0.1c0.4,0.1,0.7,0.1,0.9,0.3c0.2,0.1,0.3,0.3,0.4,0.4
		c0.1,0.2,0.1,0.5,0.1,0.8c0,0.3-0.1,0.6-0.1,0.8c-0.1,0.2-0.3,0.4-0.5,0.5c-0.3,0.1-0.6,0.2-1,0.3c-0.5,0.1-1,0.1-1.7,0.1h-1.6
		c-0.6,0-1.1,0-1.5,0c-0.4,0-0.7-0.1-0.9-0.2c-0.2-0.1-0.3-0.2-0.4-0.4c-0.1-0.2-0.1-0.5-0.1-0.9v-0.3h-1.7V96c0,0.3,0,0.7,0.1,0.9
		c0.1,0.3,0.2,0.6,0.3,0.8c0.1,0.2,0.3,0.4,0.6,0.6c0.2,0.2,0.5,0.3,0.9,0.4c0.3,0.1,0.8,0.2,1.2,0.2c0.5,0.1,1,0.1,1.6,0.1h1.6
		c0.7,0,1.3,0,1.8-0.1c0.5-0.1,1-0.2,1.4-0.3c0.4-0.1,0.7-0.3,1-0.5c0.3-0.2,0.5-0.4,0.6-0.7c0.2-0.3,0.3-0.5,0.3-0.8
		c0.1-0.3,0.1-0.6,0.1-0.9c0-0.3,0-0.6,0-0.9c0-0.3-0.1-0.6-0.2-0.8c-0.1-0.2-0.3-0.5-0.5-0.7c-0.2-0.2-0.5-0.4-0.9-0.5
		c-0.3-0.1-0.8-0.2-1.3-0.3c-0.5-0.1-1.1-0.1-1.8-0.1h-1.7c-0.5,0-1,0-1.4,0c-0.4,0-0.7-0.1-1-0.1c-0.2-0.1-0.4-0.1-0.6-0.2
		c-0.1-0.1-0.2-0.2-0.3-0.3c-0.1-0.1-0.1-0.2-0.1-0.4c0-0.2,0-0.3,0-0.6c0-0.3,0.1-0.6,0.2-0.8c0.1-0.2,0.3-0.3,0.5-0.5
		c0.3-0.1,0.7-0.2,1.2-0.3c0.5-0.1,1.2-0.1,2-0.1h1.2c0.6,0,1.1,0,1.5,0c0.4,0,0.7,0.1,0.9,0.2c0.2,0.1,0.3,0.2,0.4,0.4
		c0.1,0.2,0.1,0.5,0.1,0.8V91h1.7v-0.3c0-0.3,0-0.7-0.1-0.9C218.2,89.6,218.1,89.3,217.9,89.1z"/>
	<polygon points="221.4,89.5 226.3,89.5 226.3,98.8 228,98.8 228,89.5 232.9,89.5 232.9,87.9 221.4,87.9 	"/>
	<polygon points="237.7,98.8 248,98.8 248,97.2 239.5,97.2 239.5,94.1 247.6,94.1 247.6,92.5 239.5,92.5 239.5,89.5 248,89.5 
		248,87.9 237.7,87.9 	"/>
	<polygon points="265.7,87.9 260.1,96.8 254.5,87.9 252.2,87.9 252.2,98.8 253.9,98.8 253.9,89.9 259.4,98.8 260.9,98.8 266.4,90.1 
		266.4,98.8 268.1,98.8 268.1,87.9 	"/>
	<path fill="#58595B" d="M105.2,103.8L105.2,103.8L105.2,103.8c-0.2,0.3-0.3,0.5-0.4,0.6l-2.9,5.2l-1.3-4.1c-0.2-0.5-0.3-0.9-0.3-1
		l-0.2-0.7l-0.1,0c-0.2,0-0.4,0-0.6,0l-0.1,0l-0.3,2.1l-0.5,3.4l-0.2,1l0.1,0c0.2,0,0.3,0,0.4,0l0.1,0l0-0.1c0-0.3,0-0.5,0.1-0.6
		c0-0.1,0-0.3,0.1-0.4l0.5-3.4c0.1-0.5,0.1-0.8,0.1-0.9l0-0.2l1.8,5.7l0.1,0c0.2,0,0.4,0,0.5,0l0.1,0l2.3-4.3l0.8-1.4l0,0.2
		c0,0.4-0.1,0.8-0.1,1.3l-0.4,4.1l0,0.1l0.1,0c0.2,0,0.3,0,0.5,0l0.1,0l0-0.1c0-0.6,0.1-1.3,0.1-2.3c0-0.3,0.1-0.7,0.1-1.3l0.2-2.7
		l0-0.1l-0.1,0C105.6,103.8,105.4,103.8,105.2,103.8z"/>
	<path fill="#58595B" d="M115.1,105.2c-0.2-0.2-0.5-0.4-0.8-0.5c-0.3-0.1-0.7-0.1-1-0.1c-0.5,0-1,0.1-1.5,0.3
		c-0.5,0.2-0.8,0.6-1.1,1c-0.3,0.5-0.4,1-0.4,1.5c0,0.3,0,0.6,0.1,0.9c0.1,0.3,0.2,0.6,0.3,0.8c0.2,0.2,0.3,0.4,0.6,0.5
		c0.2,0.1,0.5,0.2,0.7,0.3c0.3,0.1,0.5,0.1,0.8,0.1c0.4,0,0.8-0.1,1.1-0.2c0.4-0.1,0.7-0.3,0.9-0.6c0.3-0.3,0.5-0.6,0.7-1
		c0.2-0.4,0.3-0.8,0.3-1.2c0-0.4,0-0.8-0.1-1.1C115.5,105.7,115.3,105.4,115.1,105.2z M115.1,107.2c0,0.4-0.1,0.7-0.2,1.1
		c-0.1,0.3-0.3,0.6-0.5,0.8c-0.2,0.2-0.5,0.4-0.7,0.5c-0.5,0.2-1.1,0.2-1.7,0c-0.2-0.1-0.4-0.2-0.6-0.4c-0.2-0.2-0.3-0.4-0.4-0.7
		c-0.1-0.3-0.1-0.6-0.1-0.9c0-0.5,0.2-0.9,0.4-1.3c0.2-0.4,0.5-0.7,0.8-0.9c0.4-0.2,0.8-0.3,1.2-0.3c0.3,0,0.5,0,0.8,0.1
		c0.2,0.1,0.5,0.2,0.6,0.4c0.2,0.2,0.3,0.4,0.4,0.7C115.1,106.5,115.1,106.8,115.1,107.2z"/>
	<path fill="#58595B" d="M123.1,102.9L123.1,102.9l-0.1,0.1c0,0.3,0,0.6-0.1,0.9c0,0.3,0,0.5-0.1,0.8c-0.4-0.1-0.8-0.1-1.1-0.1
		c-0.5,0-0.9,0.1-1.3,0.2c-0.4,0.1-0.8,0.3-1.2,0.6c-0.4,0.3-0.6,0.6-0.8,1c-0.2,0.4-0.3,0.8-0.4,1.3c0,0.3,0,0.6,0.1,0.9
		c0.1,0.3,0.2,0.6,0.4,0.8c0.2,0.2,0.5,0.4,0.8,0.5c0.3,0.1,0.6,0.2,1,0.2c0.2,0,0.5,0,0.7-0.1c0.2-0.1,0.4-0.1,0.6-0.2
		c0.2-0.1,0.3-0.2,0.5-0.3c0.1-0.1,0.2-0.2,0.3-0.4c0,0,0,0,0,0l-0.1,0.9h0.3c0,0,0.1,0,0.2,0l0.1,0l0.1-0.7c0-0.3,0.1-0.9,0.2-1.9
		l0.3-2.5c0.1-0.7,0.2-1.4,0.2-2l0-0.1l-0.1,0C123.4,102.9,123.3,102.9,123.1,102.9z M122.8,105.2l-0.2,1.6
		c-0.1,0.5-0.1,0.9-0.2,1.1c-0.1,0.2-0.2,0.4-0.3,0.6c-0.1,0.2-0.2,0.4-0.4,0.5c-0.1,0.1-0.3,0.3-0.4,0.3c-0.1,0.1-0.3,0.2-0.5,0.2
		c-0.2,0-0.4,0.1-0.6,0.1c-0.4,0-0.7-0.1-0.9-0.2c-0.3-0.1-0.5-0.4-0.6-0.7c-0.1-0.3-0.2-0.7-0.2-1.1c0-0.4,0.1-0.7,0.3-1.1
		c0.2-0.4,0.4-0.7,0.7-0.9c0.3-0.2,0.6-0.4,1-0.5c0.4-0.1,0.8-0.2,1.1-0.2c0.2,0,0.3,0,0.5,0C122.4,105.1,122.6,105.1,122.8,105.2z"
		/>
	<path fill="#58595B" d="M131.1,104.7c0,0-0.1,0-0.2,0l-0.1,0l0,0.1c0,0.5-0.1,1.1-0.2,1.8c-0.1,0.7-0.1,1.1-0.2,1.4
		c-0.1,0.2-0.1,0.5-0.2,0.6c-0.1,0.2-0.2,0.4-0.4,0.5c-0.1,0.1-0.3,0.2-0.4,0.3c-0.1,0.1-0.3,0.2-0.6,0.2c-0.4,0.1-0.9,0.1-1.4,0
		c-0.2,0-0.4-0.1-0.6-0.2c-0.2-0.1-0.3-0.2-0.3-0.4c-0.1-0.2-0.1-0.4-0.1-0.6c0-0.2,0.1-0.8,0.2-1.7c0.1-0.9,0.2-1.5,0.3-1.8l0-0.1
		l-0.1,0c-0.1,0-0.2,0-0.2,0s-0.1,0-0.2,0l-0.1,0l0,0.1c0,0.5-0.1,1.2-0.2,2c-0.1,0.8-0.2,1.3-0.2,1.6c0,0.3,0,0.5,0.1,0.8
		c0.1,0.2,0.2,0.4,0.4,0.6c0.2,0.2,0.5,0.3,0.7,0.4c0.3,0.1,0.6,0.1,0.9,0.1c0.2,0,0.4,0,0.6,0c0.2,0,0.4-0.1,0.5-0.1
		c0.2-0.1,0.3-0.1,0.5-0.2c0.1-0.1,0.3-0.2,0.3-0.3c0.1-0.1,0.2-0.2,0.2-0.3c0,0,0,0,0,0l-0.1,0.8l0.1,0c0.1,0,0.3,0,0.4,0l0.1,0
		l0-0.1c0-0.2,0-0.5,0.1-0.8l0.1-0.8l0.5-3.7l-0.1,0C131.3,104.7,131.2,104.7,131.1,104.7z"/>
	<path fill="#58595B" d="M134.7,102.9L134.7,102.9l-0.1,0.1c-0.2,1.8-0.4,4.2-0.8,7l0,0.1l0.1,0c0.2,0,0.3,0,0.4,0l0.1,0l0.5-4.6
		l0.3-2.6l-0.1,0C134.9,102.9,134.9,102.9,134.7,102.9z"/>
	<path fill="#58595B" d="M141.7,104.9c-0.2-0.1-0.4-0.2-0.7-0.3c-0.5-0.1-1.2-0.1-1.8,0c-0.3,0-0.6,0.1-1,0.2l-0.1,0l0,0.1
		c0,0.1-0.1,0.3-0.1,0.4l-0.1,0.2l0.2-0.1c0.2-0.1,0.4-0.2,0.6-0.2c0.2,0,0.3-0.1,0.6-0.1c0.4-0.1,0.9-0.1,1.4,0
		c0.2,0,0.3,0.1,0.5,0.2c0.1,0.1,0.2,0.2,0.2,0.3c0,0.1,0.1,0.2,0,0.3c0,0.1-0.1,0.3-0.2,0.4c-0.1,0.1-0.3,0.3-0.5,0.3
		c-0.2,0.1-0.4,0.2-0.7,0.2c-0.5,0.1-0.8,0.2-0.9,0.2c-0.3,0.1-0.6,0.2-0.8,0.2c-0.2,0.1-0.4,0.2-0.6,0.3c-0.2,0.1-0.3,0.2-0.4,0.3
		c-0.1,0.1-0.2,0.3-0.3,0.4c-0.1,0.1-0.1,0.3-0.1,0.4c0,0.2,0,0.4,0.1,0.6c0.1,0.2,0.2,0.3,0.4,0.5c0.2,0.1,0.4,0.2,0.7,0.3
		c0.3,0,0.5,0.1,0.9,0.1c0.2,0,0.3,0,0.5,0c0.2,0,0.4-0.1,0.7-0.1l0.1,0l0-0.1c0-0.1,0.1-0.3,0.1-0.4l0.1-0.2l-0.2,0.1
		c-0.2,0.1-0.4,0.1-0.5,0.1c-0.1,0-0.2,0-0.4,0.1c-0.1,0-0.3,0-0.4,0c-0.3,0-0.5,0-0.7-0.1c-0.2-0.1-0.3-0.2-0.5-0.3
		c-0.1-0.1-0.2-0.3-0.1-0.5c0-0.1,0-0.3,0.1-0.4c0.1-0.1,0.1-0.2,0.2-0.3c0.1-0.1,0.3-0.2,0.5-0.3c0.2-0.1,0.4-0.2,0.7-0.3
		c0.1,0,0.4-0.1,0.7-0.2c0.3-0.1,0.5-0.1,0.6-0.2c0.1,0,0.2-0.1,0.3-0.1c0.1,0,0.2-0.1,0.3-0.1c0.1,0,0.2-0.1,0.2-0.1
		c0,0,0.1,0,0.1-0.1c0,0.3-0.1,0.6-0.1,0.8c0,0.4-0.1,0.7-0.1,1c0,0.3-0.1,0.7-0.2,1.3l0,0.1l0.1,0c0.2,0,0.3,0,0.4,0l0.1,0l0-0.5
		c0-0.2,0-0.5,0.1-1c0.1-0.4,0.1-0.8,0.1-1.1c0-0.3,0.1-0.6,0.1-0.8c0-0.3,0.1-0.5,0.1-0.7c0-0.2,0-0.4,0-0.5
		C142,105.2,141.8,105.1,141.7,104.9z"/>
	<path fill="#58595B" d="M147.8,104.6L147.8,104.6c-0.5-0.1-0.8-0.1-1.2,0c-0.2,0-0.4,0.1-0.5,0.2c-0.2,0.1-0.3,0.2-0.4,0.3
		c-0.1,0.1-0.1,0.1-0.2,0.2l0.1-0.7l-0.1,0c-0.1,0-0.2,0-0.4,0l-0.1,0l0,0.6c0,0.5-0.1,1.2-0.2,2.2c-0.1,1-0.2,1.8-0.3,2.5l0,0.1
		l0.1,0c0.2,0,0.2,0,0.4,0l0.1,0l0-0.1c0-0.4,0.1-0.9,0.1-1.7c0.1-0.6,0.1-1.1,0.2-1.5c0-0.3,0.1-0.5,0.2-0.7
		c0.1-0.2,0.2-0.3,0.3-0.5c0.1-0.1,0.2-0.3,0.4-0.3c0.1-0.1,0.2-0.1,0.4-0.2c0.3-0.1,0.6-0.1,1,0l0.1,0l0-0.1
		C147.8,104.9,147.8,104.8,147.8,104.6L147.8,104.6z"/>
	<path fill="#58595B" d="M162.5,103.4c-0.1-0.1-0.3-0.3-0.4-0.3c-0.2-0.1-0.3-0.1-0.5-0.2c-0.2,0-0.5,0-0.9,0l-1.2,0l-1.2,0l0,0.5
		c0,0.2,0,0.3,0,0.5l-0.5,4.4l-0.3,1.8l2.3,0c0.4,0,0.7,0,1-0.1c0.3-0.1,0.6-0.2,0.9-0.4c0.3-0.2,0.5-0.4,0.7-0.7
		c0.2-0.3,0.3-0.6,0.3-0.9c0-0.2,0-0.3,0-0.5c0-0.2-0.1-0.3-0.1-0.4c-0.1-0.1-0.1-0.2-0.2-0.3c-0.1-0.1-0.2-0.2-0.3-0.3
		c-0.1-0.1-0.2-0.1-0.3-0.2c-0.1,0-0.1,0-0.2-0.1c0.1,0,0.2-0.1,0.2-0.1c0.1-0.1,0.3-0.2,0.4-0.3c0.1-0.1,0.3-0.2,0.4-0.4
		c0.1-0.1,0.2-0.3,0.2-0.5c0.1-0.2,0.1-0.3,0.1-0.5c0-0.2,0-0.4-0.1-0.6C162.7,103.7,162.6,103.6,162.5,103.4z M161,106.6
		c0.2,0,0.4,0.1,0.6,0.2c0.2,0.1,0.3,0.3,0.4,0.5c0.1,0.2,0.1,0.4,0.1,0.6c0,0.3-0.1,0.5-0.2,0.7c-0.1,0.2-0.3,0.4-0.5,0.5
		c-0.2,0.1-0.4,0.2-0.6,0.3c-0.2,0.1-0.6,0.1-1.1,0.1h-1.5l0.3-3h1.7C160.5,106.6,160.8,106.6,161,106.6z M160.7,106
		c-0.2,0-0.6,0-1.1,0h-1l0.3-2.7h1.8c0.4,0,0.6,0,0.8,0.1c0.2,0,0.3,0.1,0.4,0.2c0.1,0.1,0.2,0.2,0.3,0.4c0.1,0.1,0.1,0.3,0.1,0.5
		c0,0.2-0.1,0.4-0.1,0.6c-0.1,0.2-0.2,0.3-0.3,0.5c-0.1,0.1-0.3,0.2-0.4,0.3C161.1,105.9,160.9,106,160.7,106z"/>
	<path fill="#58595B" d="M170.4,104.7c0,0-0.1,0-0.2,0l-0.1,0l0,0.1c0,0.5-0.1,1.1-0.2,1.8c-0.1,0.7-0.1,1.1-0.2,1.4
		c-0.1,0.2-0.1,0.5-0.2,0.6c-0.1,0.2-0.2,0.4-0.4,0.5c-0.1,0.1-0.3,0.2-0.4,0.3c-0.1,0.1-0.3,0.2-0.6,0.2c-0.4,0.1-0.9,0.1-1.4,0
		c-0.2,0-0.4-0.1-0.6-0.2c-0.2-0.1-0.3-0.2-0.3-0.4c-0.1-0.2-0.1-0.4-0.1-0.6c0-0.2,0.1-0.8,0.2-1.7c0.1-0.9,0.2-1.5,0.3-1.8l0-0.1
		l-0.1,0c-0.1,0-0.2,0-0.2,0c0,0-0.1,0-0.2,0l-0.1,0l0,0.1c0,0.5-0.1,1.2-0.2,2c-0.1,0.8-0.2,1.3-0.2,1.6c0,0.3,0,0.5,0.1,0.8
		c0.1,0.2,0.2,0.4,0.4,0.6c0.2,0.2,0.5,0.3,0.7,0.4c0.3,0.1,0.6,0.1,0.9,0.1c0.2,0,0.4,0,0.6,0c0.2,0,0.4-0.1,0.5-0.1
		c0.2-0.1,0.3-0.1,0.5-0.2c0.1-0.1,0.3-0.2,0.3-0.3c0.1-0.1,0.2-0.2,0.2-0.3c0,0,0,0,0,0l-0.1,0.8l0.1,0c0.1,0,0.3,0,0.4,0l0.1,0
		l0-0.1c0-0.2,0-0.5,0.1-0.8l0.1-0.8l0.5-3.7l-0.1,0C170.5,104.7,170.4,104.7,170.4,104.7z"/>
	<path fill="#58595B" d="M173.7,104.7L173.7,104.7l-0.1,0.1c0,0.4-0.1,1.2-0.3,2.5c-0.2,1.3-0.3,2.2-0.3,2.7l0,0.1l0.1,0
		c0.2,0,0.2,0,0.4,0l0.1,0l0-0.1c0-0.6,0.1-1.4,0.3-2.5c0.1-1.1,0.2-2,0.3-2.7l0-0.1l-0.1,0C174,104.7,173.9,104.7,173.7,104.7z"/>
	<path fill="#58595B" d="M173.9,102.9L173.9,102.9l-0.2,0.7l0.1,0c0.2,0,0.4,0,0.5,0l0.1,0l0.1-0.7l-0.1,0
		C174.2,102.9,174,102.9,173.9,102.9z"/>
	<path fill="#58595B" d="M177.5,102.9L177.5,102.9l-0.1,0.1c-0.2,1.8-0.4,4.2-0.8,7l0,0.1l0.1,0c0.2,0,0.3,0,0.4,0l0.1,0l0.5-4.6
		l0.3-2.6l-0.1,0C177.8,102.9,177.7,102.9,177.5,102.9z"/>
	<path fill="#58595B" d="M185.3,102.9L185.3,102.9l-0.1,0.1c0,0.3,0,0.6-0.1,0.9c0,0.3,0,0.5-0.1,0.8c-0.4-0.1-0.8-0.1-1.1-0.1
		c-0.5,0-0.9,0.1-1.3,0.2c-0.4,0.1-0.8,0.3-1.2,0.6c-0.4,0.3-0.6,0.6-0.8,1c-0.2,0.4-0.3,0.8-0.4,1.3c0,0.3,0,0.6,0.1,0.9
		c0.1,0.3,0.2,0.6,0.4,0.8c0.2,0.2,0.5,0.4,0.8,0.5c0.3,0.1,0.6,0.2,1,0.2c0.2,0,0.5,0,0.7-0.1c0.2-0.1,0.4-0.1,0.6-0.2
		c0.2-0.1,0.3-0.2,0.5-0.3c0.1-0.1,0.2-0.2,0.3-0.4c0,0,0,0,0,0l-0.1,0.9h0.3c0,0,0.1,0,0.2,0l0.1,0l0.1-0.7c0-0.3,0.1-0.9,0.2-1.9
		l0.3-2.5c0.1-0.7,0.2-1.4,0.2-2l0-0.1l-0.1,0C185.6,102.9,185.5,102.9,185.3,102.9z M185,105.2l-0.2,1.6c-0.1,0.5-0.1,0.9-0.2,1.1
		c-0.1,0.2-0.2,0.4-0.3,0.6c-0.1,0.2-0.2,0.4-0.4,0.5c-0.1,0.1-0.3,0.3-0.4,0.3c-0.1,0.1-0.3,0.2-0.5,0.2c-0.2,0-0.4,0.1-0.6,0.1
		c-0.4,0-0.7-0.1-0.9-0.2c-0.3-0.1-0.5-0.4-0.6-0.7c-0.1-0.3-0.2-0.7-0.2-1.1c0-0.4,0.1-0.7,0.3-1.1c0.2-0.4,0.4-0.7,0.7-0.9
		c0.3-0.2,0.6-0.4,1-0.5c0.4-0.1,0.8-0.2,1.1-0.2c0.2,0,0.3,0,0.5,0C184.6,105.1,184.8,105.1,185,105.2z"/>
	<path fill="#58595B" d="M189,102.9L189,102.9l-0.2,0.7l0.1,0c0.2,0,0.4,0,0.5,0l0.1,0l0.1-0.7l-0.1,0
		C189.3,102.9,189.1,102.9,189,102.9z"/>
	<path fill="#58595B" d="M188.8,104.7L188.8,104.7l-0.1,0.1c0,0.4-0.1,1.2-0.3,2.5c-0.2,1.3-0.3,2.2-0.3,2.7l0,0.1l0.1,0
		c0.2,0,0.2,0,0.4,0l0.1,0l0-0.1c0-0.6,0.1-1.4,0.3-2.5c0.1-1.1,0.2-2,0.3-2.7l0-0.1l-0.1,0C189.1,104.7,189,104.7,188.8,104.7z"/>
	<path fill="#58595B" d="M196.7,105c-0.2-0.2-0.4-0.3-0.7-0.4c-0.5-0.1-0.9-0.1-1.5-0.1c-0.2,0-0.4,0.1-0.6,0.1
		c-0.2,0.1-0.4,0.1-0.5,0.2c-0.1,0.1-0.3,0.2-0.4,0.3c-0.1,0.1-0.2,0.2-0.2,0.3l0.1-0.7l0-0.1l-0.1,0c-0.1,0-0.2,0-0.2,0
		c0,0-0.1,0-0.2,0l-0.1,0l0,0.1c0,0.1,0,0.3-0.1,0.6l-0.2,1.5l-0.4,3.2l0.1,0c0.2,0,0.2,0,0.4,0l0.1,0l0-0.1c0-0.5,0.1-1,0.2-1.7
		c0.1-0.6,0.1-1.1,0.2-1.4c0.1-0.3,0.2-0.6,0.3-0.8c0.1-0.2,0.3-0.4,0.5-0.6c0.2-0.2,0.4-0.3,0.7-0.4c0.3-0.1,0.6-0.1,0.9-0.1
		c0.2,0,0.5,0,0.7,0.1c0.2,0,0.4,0.1,0.5,0.2c0.1,0.1,0.2,0.2,0.3,0.4c0.1,0.2,0.1,0.4,0.1,0.6c0,0.2-0.1,0.6-0.1,1l-0.2,1.3
		c-0.1,0.4-0.1,0.8-0.2,1.2l0,0.1l0.1,0c0.1,0,0.3,0,0.4,0l0.1,0l0.1-0.9l0.3-2.3c0-0.2,0-0.4,0.1-0.5c0-0.2,0-0.5-0.1-0.7
		C197,105.4,196.9,105.2,196.7,105z"/>
	<path fill="#58595B" d="M203.4,104.6c-0.5,0-1,0.1-1.4,0.2c-0.4,0.1-0.8,0.3-1.2,0.6c-0.4,0.3-0.6,0.6-0.8,1.1
		c-0.2,0.4-0.3,0.9-0.4,1.4c0,0.3,0,0.7,0.1,1c0.1,0.3,0.3,0.6,0.5,0.8c0.2,0.2,0.5,0.4,0.8,0.4c0.5,0.1,1,0.2,1.6,0.1
		c0.2,0,0.4-0.1,0.6-0.2c0.2-0.1,0.3-0.1,0.5-0.2c0.1-0.1,0.3-0.2,0.4-0.3c0.1-0.1,0.2-0.2,0.2-0.3c0,0.4-0.1,0.7-0.1,1
		c0,0.3-0.1,0.5-0.1,0.7c-0.1,0.2-0.1,0.4-0.3,0.5c-0.1,0.1-0.2,0.2-0.4,0.3c-0.2,0.1-0.4,0.2-0.6,0.3c-0.5,0.1-1,0.1-1.7,0
		c-0.3,0-0.7-0.1-1.2-0.3l-0.1,0l0,0.1c0,0.1,0,0.3,0,0.4l0,0.1l0.1,0c0.4,0.1,0.7,0.1,1,0.2c0.3,0,0.6,0,0.9,0c0.4,0,0.8,0,1.1-0.1
		c0.3-0.1,0.6-0.2,0.8-0.3c0.2-0.1,0.4-0.3,0.5-0.4c0.1-0.2,0.3-0.4,0.3-0.6c0.1-0.2,0.1-0.4,0.2-0.7l0.2-2.1l0.3-2.3
		c0-0.2,0-0.3,0.1-0.4l0.1-0.7l-0.1,0C204.5,104.6,203.9,104.6,203.4,104.6z M204.6,105.2l-0.2,1.7c-0.1,0.5-0.1,0.8-0.2,1.1
		c-0.1,0.2-0.2,0.4-0.3,0.6c-0.1,0.2-0.3,0.4-0.4,0.5c-0.1,0.1-0.3,0.3-0.4,0.3c-0.2,0.1-0.3,0.1-0.5,0.2c-0.2,0.1-0.5,0.1-0.7,0.1
		c-0.4,0-0.7-0.1-1-0.2c-0.3-0.1-0.5-0.4-0.6-0.7c-0.1-0.3-0.2-0.7-0.1-1c0-0.4,0.1-0.8,0.3-1.2c0.2-0.4,0.4-0.7,0.7-0.9
		c0.3-0.2,0.6-0.4,1-0.5c0.4-0.1,0.7-0.1,1.1-0.1c0.2,0,0.3,0,0.5,0C204.1,105.1,204.3,105.1,204.6,105.2z"/>
	<path fill="#58595B" d="M218.6,103L218.6,103L218.6,103c-0.6-0.2-1-0.2-1.4-0.2c-0.5,0-0.9,0.1-1.3,0.2c-0.3,0.1-0.6,0.3-0.8,0.6
		c-0.2,0.3-0.3,0.5-0.3,0.8c0,0.1,0,0.2,0,0.4c0,0.1,0,0.2,0.1,0.3c0,0.1,0.1,0.2,0.2,0.3c0.1,0.1,0.2,0.3,0.3,0.4
		c0.1,0.1,0.3,0.3,0.4,0.4l0.4,0.3c0.5,0.4,0.8,0.7,1,0.9c0.2,0.2,0.3,0.3,0.4,0.5c0.1,0.1,0.1,0.2,0.2,0.3c0,0.1,0,0.2,0,0.3
		c0,0.2-0.1,0.4-0.2,0.6c-0.1,0.2-0.3,0.3-0.6,0.4c-0.7,0.3-1.6,0.2-2.7-0.3l-0.1-0.1l0,0.2c0,0.2,0,0.3,0,0.5l0,0.1l0.1,0
		c0.4,0.1,0.8,0.2,1,0.3c0.3,0,0.5,0.1,0.8,0.1c0.4,0,0.8-0.1,1.2-0.2c0.4-0.1,0.6-0.3,0.8-0.6c0.2-0.3,0.3-0.6,0.3-0.9
		c0-0.2,0-0.3,0-0.4c0-0.1-0.1-0.3-0.1-0.4c-0.1-0.1-0.2-0.3-0.3-0.4c-0.1-0.1-0.2-0.2-0.3-0.4c-0.1-0.1-0.3-0.3-0.6-0.5
		c-0.3-0.3-0.5-0.5-0.7-0.6c-0.2-0.2-0.3-0.3-0.5-0.4c-0.1-0.1-0.2-0.2-0.3-0.3c-0.1-0.1-0.1-0.2-0.1-0.3c0-0.1,0-0.2,0-0.3
		c0-0.2,0.1-0.4,0.2-0.5c0.1-0.2,0.3-0.3,0.5-0.4c0.4-0.2,0.9-0.2,1.5-0.1c0.2,0,0.5,0.1,0.8,0.2l0.1,0l0-0.1
		C218.6,103.2,218.6,103.1,218.6,103z"/>
	<path fill="#58595B" d="M225.8,105.2c-0.2-0.2-0.5-0.4-0.8-0.5c-0.3-0.1-0.7-0.1-1-0.1c-0.5,0-1,0.1-1.5,0.3
		c-0.5,0.2-0.8,0.6-1.1,1c-0.3,0.5-0.4,1-0.4,1.5c0,0.3,0,0.6,0.1,0.9c0.1,0.3,0.2,0.6,0.3,0.8c0.2,0.2,0.3,0.4,0.6,0.5
		c0.2,0.1,0.5,0.2,0.7,0.3c0.3,0.1,0.5,0.1,0.8,0.1c0.4,0,0.8-0.1,1.1-0.2c0.4-0.1,0.7-0.3,0.9-0.6c0.3-0.3,0.5-0.6,0.7-1
		c0.2-0.4,0.3-0.8,0.3-1.2c0-0.4,0-0.8-0.1-1.1C226.2,105.7,226,105.4,225.8,105.2z M225.8,107.2c0,0.4-0.1,0.7-0.2,1.1
		c-0.1,0.3-0.3,0.6-0.5,0.8c-0.2,0.2-0.5,0.4-0.7,0.5c-0.5,0.2-1.1,0.2-1.7,0c-0.2-0.1-0.4-0.2-0.6-0.4c-0.2-0.2-0.3-0.4-0.4-0.7
		c-0.1-0.3-0.1-0.6-0.1-0.9c0-0.5,0.2-0.9,0.4-1.3c0.2-0.4,0.5-0.7,0.8-0.9c0.4-0.2,0.8-0.3,1.2-0.3c0.3,0,0.5,0,0.8,0.1
		c0.2,0.1,0.5,0.2,0.6,0.4c0.2,0.2,0.3,0.4,0.4,0.7C225.8,106.5,225.8,106.8,225.8,107.2z"/>
	<path fill="#58595B" d="M229.7,102.9L229.7,102.9l-0.1,0.1c-0.2,1.8-0.4,4.2-0.8,7l0,0.1l0.1,0c0.2,0,0.3,0,0.4,0l0.1,0l0.5-4.6
		l0.3-2.6l-0.1,0C229.9,102.9,229.9,102.9,229.7,102.9z"/>
	<path fill="#58595B" d="M237.7,104.7c0,0-0.1,0-0.2,0l-0.1,0l0,0.1c0,0.5-0.1,1.1-0.2,1.8c-0.1,0.7-0.1,1.1-0.2,1.4
		c-0.1,0.2-0.1,0.5-0.2,0.6c-0.1,0.2-0.2,0.4-0.4,0.5c-0.1,0.1-0.3,0.2-0.4,0.3c-0.1,0.1-0.3,0.2-0.6,0.2c-0.4,0.1-0.9,0.1-1.4,0
		c-0.2,0-0.4-0.1-0.6-0.2c-0.2-0.1-0.3-0.2-0.3-0.4c-0.1-0.2-0.1-0.4-0.1-0.6c0-0.2,0.1-0.8,0.2-1.7c0.1-0.9,0.2-1.5,0.3-1.8l0-0.1
		l-0.1,0c-0.1,0-0.2,0-0.2,0c0,0-0.1,0-0.2,0l-0.1,0l0,0.1c0,0.5-0.1,1.2-0.2,2c-0.1,0.8-0.2,1.3-0.2,1.6c0,0.3,0,0.5,0.1,0.8
		c0.1,0.2,0.2,0.4,0.4,0.6c0.2,0.2,0.5,0.3,0.7,0.4c0.3,0.1,0.6,0.1,0.9,0.1c0.2,0,0.4,0,0.6,0c0.2,0,0.4-0.1,0.5-0.1
		c0.2-0.1,0.3-0.1,0.5-0.2c0.1-0.1,0.3-0.2,0.3-0.3c0.1-0.1,0.2-0.2,0.2-0.3c0,0,0,0,0,0l-0.1,0.8l0.1,0c0.1,0,0.3,0,0.4,0l0.1,0
		l0-0.1c0-0.2,0-0.5,0.1-0.8l0.1-0.8l0.5-3.7l-0.1,0C237.8,104.7,237.7,104.7,237.7,104.7z"/>
	<path fill="#58595B" d="M241.7,103.7l0-0.1l-0.1,0c-0.1,0-0.2,0-0.3,0.1l-0.1,0l0,0.1c0,0.4-0.1,0.7-0.1,0.9h-0.7l0,0.1
		c0,0.1,0,0.2,0,0.3l0,0.1h0.7l-0.4,3.4c0,0.1,0,0.2,0,0.2c0,0.1,0,0.1,0,0.1c0,0.2,0,0.3,0,0.5c0,0.2,0.1,0.3,0.2,0.4
		c0.1,0.1,0.2,0.2,0.4,0.3c0.2,0,0.4,0.1,0.6,0.1c0.3,0,0.5,0,0.8-0.1l0.1,0l0-0.1c0-0.1,0.1-0.2,0.1-0.3l0.1-0.2l-0.2,0
		c-0.3,0.1-0.5,0.1-0.6,0.1c-0.2,0-0.5,0-0.6-0.1c-0.1,0-0.2-0.1-0.2-0.2c-0.1-0.1-0.1-0.3-0.1-0.6l0.5-3.6h1.6l0-0.1
		c0-0.1,0-0.2,0-0.3l0-0.1h-1.6C241.6,104.5,241.7,104.2,241.7,103.7z"/>
	<path fill="#58595B" d="M245.8,102.9L245.8,102.9l-0.2,0.7l0.1,0c0.2,0,0.4,0,0.5,0l0.1,0l0.1-0.7l-0.1,0
		C246.2,102.9,246,102.9,245.8,102.9z"/>
	<path fill="#58595B" d="M245.7,104.7L245.7,104.7l-0.1,0.1c0,0.4-0.1,1.2-0.3,2.5c-0.2,1.3-0.3,2.2-0.3,2.7l0,0.1l0.1,0
		c0.2,0,0.2,0,0.4,0l0.1,0l0-0.1c0-0.6,0.1-1.4,0.3-2.5c0.1-1.1,0.2-2,0.3-2.7l0-0.1l-0.1,0C245.9,104.7,245.9,104.7,245.7,104.7z"
		/>
	<path fill="#58595B" d="M253.4,105.2c-0.2-0.2-0.5-0.4-0.8-0.5c-0.3-0.1-0.7-0.1-1-0.1c-0.5,0-1,0.1-1.5,0.3
		c-0.5,0.2-0.8,0.6-1.1,1c-0.3,0.5-0.4,1-0.4,1.5c0,0.3,0,0.6,0.1,0.9c0.1,0.3,0.2,0.6,0.3,0.8c0.2,0.2,0.3,0.4,0.6,0.5
		c0.2,0.1,0.5,0.2,0.7,0.3c0.3,0.1,0.5,0.1,0.8,0.1c0.4,0,0.8-0.1,1.1-0.2c0.4-0.1,0.7-0.3,0.9-0.6c0.3-0.3,0.5-0.6,0.7-1
		c0.2-0.4,0.3-0.8,0.3-1.2c0-0.4,0-0.8-0.1-1.1C253.8,105.7,253.6,105.4,253.4,105.2z M253.4,107.2c0,0.4-0.1,0.7-0.2,1.1
		c-0.1,0.3-0.3,0.6-0.5,0.8c-0.2,0.2-0.5,0.4-0.7,0.5c-0.5,0.2-1.1,0.2-1.7,0c-0.2-0.1-0.4-0.2-0.6-0.4c-0.2-0.2-0.3-0.4-0.4-0.7
		c-0.1-0.3-0.1-0.6-0.1-0.9c0-0.5,0.2-0.9,0.4-1.3c0.2-0.4,0.5-0.7,0.8-0.9c0.4-0.2,0.8-0.3,1.2-0.3c0.3,0,0.5,0,0.8,0.1
		c0.2,0.1,0.5,0.2,0.6,0.4c0.2,0.2,0.3,0.4,0.4,0.7C253.4,106.5,253.4,106.8,253.4,107.2z"/>
	<path fill="#58595B" d="M261.3,105c-0.2-0.2-0.4-0.3-0.7-0.4c-0.5-0.1-0.9-0.1-1.5-0.1c-0.2,0-0.4,0.1-0.6,0.1
		c-0.2,0.1-0.4,0.1-0.5,0.2c-0.1,0.1-0.3,0.2-0.4,0.3c-0.1,0.1-0.2,0.2-0.2,0.3l0.1-0.7l0-0.1l-0.1,0c-0.1,0-0.2,0-0.2,0
		c0,0-0.1,0-0.2,0l-0.1,0l0,0.1c0,0.1,0,0.3-0.1,0.6l-0.2,1.5l-0.4,3.2l0.1,0c0.2,0,0.2,0,0.4,0l0.1,0l0-0.1c0-0.5,0.1-1,0.2-1.7
		c0.1-0.6,0.1-1.1,0.2-1.4c0.1-0.3,0.2-0.6,0.3-0.8c0.1-0.2,0.3-0.4,0.5-0.6c0.2-0.2,0.4-0.3,0.7-0.4c0.3-0.1,0.6-0.1,0.9-0.1
		c0.2,0,0.5,0,0.7,0.1c0.2,0,0.4,0.1,0.5,0.2c0.1,0.1,0.2,0.2,0.3,0.4c0.1,0.2,0.1,0.4,0.1,0.6c0,0.2-0.1,0.6-0.1,1l-0.2,1.3
		c-0.1,0.4-0.1,0.8-0.2,1.2l0,0.1l0.1,0c0.1,0,0.3,0,0.4,0l0.1,0l0.1-0.9l0.3-2.3c0-0.2,0-0.4,0.1-0.5c0-0.2,0-0.5-0.1-0.7
		C261.6,105.4,261.5,105.2,261.3,105z"/>
	<path fill="#58595B" d="M265.7,105.2c0.3-0.1,0.8-0.1,1.2,0c0.2,0,0.4,0.1,0.6,0.2l0.1,0.1l0-0.2c0-0.1,0-0.3,0-0.4l0-0.1l-0.1,0
		c-0.9-0.2-1.6-0.2-2.1,0c-0.3,0.1-0.5,0.3-0.6,0.5c-0.2,0.2-0.2,0.4-0.3,0.6c0,0.1,0,0.3,0,0.4c0,0.1,0.1,0.3,0.2,0.4
		c0.1,0.1,0.2,0.3,0.4,0.4c0.1,0.1,0.3,0.3,0.5,0.5c0.2,0.2,0.4,0.3,0.5,0.4c0.1,0.1,0.2,0.2,0.3,0.2c0.1,0.1,0.1,0.1,0.2,0.2
		c0,0.1,0.1,0.1,0.1,0.2c0,0.1,0,0.1,0.1,0.2c0,0.1,0,0.1,0,0.2c0,0.1-0.1,0.3-0.2,0.4c-0.1,0.1-0.2,0.2-0.4,0.3
		c-0.3,0.1-0.8,0.1-1.4,0c-0.2,0-0.5-0.1-0.8-0.2l-0.2-0.1l0,0.2c0,0.1,0,0.3,0,0.4l0,0.1l0.1,0c0.2,0.1,0.3,0.1,0.5,0.1
		c0.1,0,0.3,0,0.5,0.1c0.2,0,0.4,0,0.5,0c0.4,0,0.7-0.1,1-0.2c0.3-0.1,0.5-0.3,0.7-0.5c0.2-0.2,0.2-0.4,0.3-0.7c0-0.1,0-0.2,0-0.3
		c0-0.1,0-0.2-0.1-0.3c0-0.1-0.1-0.2-0.2-0.3c-0.1-0.1-0.1-0.2-0.2-0.3c-0.1-0.1-0.2-0.2-0.3-0.3c-0.1-0.1-0.3-0.2-0.5-0.4
		c-0.2-0.2-0.4-0.3-0.5-0.4c-0.1-0.1-0.2-0.2-0.3-0.3c-0.1-0.1-0.1-0.1-0.2-0.2c0-0.1-0.1-0.1-0.1-0.2c0-0.1,0-0.1,0-0.2
		c0-0.1,0.1-0.3,0.2-0.4C265.4,105.3,265.5,105.2,265.7,105.2z"/>
	<path d="M34.9,40"/>
	
		<radialGradient id="SVGID_14_" cx="7.7217" cy="77.5936" r="25.7955" gradientTransform="matrix(0.9996 2.710000e-002 -2.710000e-002 0.9996 37.5599 -30.5115)" gradientUnits="userSpaceOnUse">
		<stop  offset="0" style="stop-color:#FFDE17"/>
		<stop  offset="1" style="stop-color:#F15A29"/>
	</radialGradient>
	<path fill="url(#SVGID_14_)" d="M26.9,49.5c0.8,0.8,1.7,1.5,2.6,2c2.6-3.2,5.4-6.4,8.2-8.9c2.7-2.4,7-5.9,12-9.2
		c-0.5-0.9-1-1.6-1.1-1.8c1.4-3.1,4.5-8.1,14.9-21.5C54.3,22,49.6,27.3,46.7,29.6c-1.1-1-2.3-1.8-3.7-2.4c0.6-2.5,1.5-6.1,3.1-11.5
		c-1.5,5.2-2.6,8.8-3.6,11.3c-0.9-0.4-1.9-0.7-2.9-0.8c-1-4.1-2-11.4-2.6-26.2c0.6,14.4,0.7,21.8,0.2,26c-0.5,0-1,0-1.6,0.1
		c-0.8,0.1-1.5,0.2-2.2,0.4c-2.2-4.2-5.1-10.2-8.3-17.3c3.2,7.1,5.6,13.2,7.2,17.6c-1.3,0.4-2.5,1-3.6,1.8
		c-3.7-2.9-9.2-8.3-18.8-18.9C19.3,19.9,24.4,26,27.1,29.8c-0.9,0.9-1.8,1.9-2.4,3c-2.7-1.2-6.3-2.9-11.1-5.4
		c4.7,2.4,8.2,4.3,10.8,5.8c-0.4,0.8-0.8,1.6-1,2.4c-3.7-0.5-10-1.9-23.4-5.8c12.6,3.7,19.3,6,22.9,7.8c-0.2,1.1-0.2,2.3-0.1,3.5
		c0.1,0.6,0.2,1.2,0.3,1.7c-4.6,1.2-10.8,2.6-18.1,4c7.3-1.4,13.6-2.4,18.3-3.1c0.4,1.3,1,2.6,1.8,3.7c-3.5,2.6-10,6.1-23,13.3
		C15.9,53.2,22.7,50.8,26.9,49.5z"/>
	<linearGradient id="SVGID_15_" gradientUnits="userSpaceOnUse" x1="26.9575" y1="66.9675" x2="-8.6601" y2="114.0923">
		<stop  offset="0" style="stop-color:#414042"/>
		<stop  offset="1" style="stop-color:#BCBEC0"/>
	</linearGradient>
	<path fill="url(#SVGID_15_)" d="M15.6,77.7c-0.2-10.2-0.2-19-0.2-19L6,69.9l1,32.7c1.5,1.1,4,2.6,9.7,2.8
		C14.5,99.8,12.2,90.1,15.6,77.7z"/>
	<path fill="#FFFFFF" d="M65.9,68.3C53.7,69,48,74.2,48.1,86c2.7-4.4,7.1-9.2,13.7-13.4c-6.3,4.5-12.7,12.4-14.7,17.2
		c0-1.4,0.1-2.5,0-3.3c-0.7-5.7-1.3-9.4-1.1-9.8c0.3-0.9,0.3-1.6,0.8-2.3c1.6-3.1,2.9-5.7,3.9-8.4c0.5-1.2,2-4.5,3.6-5.8
		c-5.4-0.1-8.1,2.9-8.3,9.1c0,1.4,0.5,3.4,0.3,4.6c-0.2,0.8-0.4,1.4-0.9,2c0-0.1-0.1-0.3-0.1-0.4c-0.3-1.6-1.3-3-1.4-3.7
		c-2.6-6.7,0.3-9.1-4.5-14.2c1.5,4.2,0.7,9.4,3.7,14.4c1.1,1.9,1.7,3.7,1.8,5.4c0.4,2.5,0.5,5.8,1.1,9.4c-0.4-0.4-0.8-0.8-1.2-1.3
		c-2-3.3-4.2-6.2-6.4-9c1.5,0.9,3.4,2.5,6,6.5l-0.7-3.4C42,72.4,38.2,68.9,27.5,68c3.5,2.9,5.3,6.6,9.1,13.2
		c2.4,3.3,5.6,3.2,7.9,4.9c0.5,0.4,1.1,1.4,1.3,1.9c0.1,0.7,0.2,1.5,0.2,2.3c-0.1,0-0.1,1.8-0.2,2.8c-0.1,0.5-0.1,1-0.2,1.6
		c0,0,0,0-0.1,0c0,0.3,0,0.5-0.1,0.8c0,0.3-0.1,0.7-0.1,1.1c-0.2,1.4-0.3,2.4-0.4,3.2c-0.1,0.7-0.2,1.3-0.3,1.6
		c0.3,0.3,0.5,0.5,0.8,0.7c0.3,0.2,0.6,0.3,0.9,0.4c-0.1-0.7-0.1-1.4,0-2.2c0-0.8,0.5-3.2,0.4-3.2c0.1-0.7,0.2-1.3,0.2-1.9
		c0.4-3.7,1.5-6.1,2.2-6.1c6.6,1.2,11.4-3.3,15.6-13.3c1.7-4.1,3.4-6.6,5-7.6L65.9,68.3z"/>
	<radialGradient id="SVGID_16_" cx="47.7859" cy="100.3469" r="31.7172" gradientUnits="userSpaceOnUse">
		<stop  offset="0" style="stop-color:#00AEEF"/>
		<stop  offset="0.1215" style="stop-color:#009DDE"/>
		<stop  offset="0.3737" style="stop-color:#007CBC"/>
		<stop  offset="0.7311" style="stop-color:#004D8F"/>
		<stop  offset="1" style="stop-color:#172671"/>
	</radialGradient>
	<path fill="url(#SVGID_16_)" d="M91.5,102.8c-31.5-36.1-60.8,19.3-87.4,0C29,128.8,60.7,77.8,91.5,102.8z"/>
	<path fill="none" stroke="#000000" stroke-miterlimit="3.8637" d="M84.7,62.4"/>
	<linearGradient id="SVGID_17_" gradientUnits="userSpaceOnUse" x1="81.8168" y1="78.8832" x2="64.83" y2="20.7995">
		<stop  offset="0" style="stop-color:#414042"/>
		<stop  offset="1" style="stop-color:#BCBEC0"/>
	</linearGradient>
	<path fill="url(#SVGID_17_)" d="M73.4,63.5l0-9.9V29.8L65.2,38C65.4,44,67.3,52.4,73.4,63.5z"/>
	<linearGradient id="SVGID_18_" gradientUnits="userSpaceOnUse" x1="80.3598" y1="40.5775" x2="80.3598" y2="93.0217">
		<stop  offset="0" style="stop-color:#414042"/>
		<stop  offset="1" style="stop-color:#BCBEC0"/>
	</linearGradient>
	<path fill="url(#SVGID_18_)" d="M76.6,68.9c0,0,6.3,7.9,8.3,18.3l-0.2-39.7l-8.8-13v23.8l0,9.4C76.1,68.1,76.3,68.5,76.6,68.9z"/>
	<linearGradient id="SVGID_19_" gradientUnits="userSpaceOnUse" x1="28.2747" y1="92.6973" x2="9.6441" y2="27.49">
		<stop  offset="0" style="stop-color:#414042"/>
		<stop  offset="1" style="stop-color:#BCBEC0"/>
	</linearGradient>
	<path fill="url(#SVGID_19_)" d="M24,59.7l-6.5-3.8c0,0,0,7.4-0.2,16.6C18.9,68.4,21.1,64.1,24,59.7z"/>
	<radialGradient id="SVGID_20_" cx="49.6428" cy="108.6444" r="26.5558" gradientUnits="userSpaceOnUse">
		<stop  offset="0" style="stop-color:#00AEEF"/>
		<stop  offset="0.1215" style="stop-color:#009DDE"/>
		<stop  offset="0.3737" style="stop-color:#007CBC"/>
		<stop  offset="0.7311" style="stop-color:#004D8F"/>
		<stop  offset="1" style="stop-color:#172671"/>
	</radialGradient>
	<path fill="url(#SVGID_20_)" d="M86.7,113.7c-24.5-29.3-53.8,10.4-74.1-5.8C31.1,129,61.7,92.5,86.7,113.7z"/>
	<radialGradient id="SVGID_21_" cx="46.5803" cy="82.7704" r="23.248" gradientUnits="userSpaceOnUse">
		<stop  offset="0" style="stop-color:#80C342"/>
		<stop  offset="0.662" style="stop-color:#007B36"/>
		<stop  offset="1" style="stop-color:#005D2C"/>
	</radialGradient>
	<path fill="url(#SVGID_21_)" d="M44.5,83.1l-0.7-3.4C42,72.4,38.2,68.9,27.5,68c3.5,2.9,5.3,6.6,9.1,13.2c2.4,3.3,5.6,3.2,7.9,4.9
		c0.5,0.4,1.1,1.4,1.3,1.9c0.1,0.7,0.2,1.5,0.2,2.3c-0.1,0-0.1,1.8-0.2,2.8c-0.1,0.5-0.1,1-0.2,1.6c0,0,0,0-0.1,0
		c0,0.3,0,0.5-0.1,0.8c0,0.3-0.1,0.7-0.1,1.1c0,0.1,0,0.2,0,0.3c0.5-0.3,1-0.5,1.6-0.7c0-0.3,0-0.6,0-0.9c0.4-3.7,1.5-6.1,2.2-6.1
		c6.6,1.2,11.4-3.3,15.6-13.3c1.7-4.1,3.4-6.6,5-7.6l-3.8,0.1C53.7,69,48,74.2,48.1,86c2.7-4.4,7.1-9.2,13.7-13.4
		c-6.3,4.5-12.7,12.4-14.7,17.2c0-1.4,0.1-2.5,0-3.3c-0.7-5.7-1.3-9.4-1.1-9.8c0.3-0.9,0.3-1.6,0.8-2.3c1.6-3.1,2.9-5.7,3.9-8.4
		c0.5-1.2,2-4.5,3.6-5.8c-5.4-0.1-8.1,2.9-8.3,9.1c0,1.4,0.5,3.4,0.3,4.6c-0.2,0.8-0.4,1.4-0.9,2c0-0.1-0.1-0.3-0.1-0.4
		c-0.3-1.6-1.3-3-1.4-3.7c-2.6-6.7,0.3-9.1-4.5-14.2c1.5,4.2,0.7,9.4,3.7,14.4c1.1,1.9,1.7,3.7,1.8,5.4c0.4,2.5,0.5,5.8,1.1,9.4
		c-0.4-0.4-0.8-0.8-1.2-1.3c-2-3.3-4.2-6.2-6.4-9C40,77.5,41.9,79.1,44.5,83.1z"/>
	<path fill="#BCBEC0" d="M91.5,102.8c-28-29.2-59.5,19.8-84.9-1.2C29.8,129.2,64.3,80.1,91.5,102.8z"/>
	<path fill="#BCBEC0" d="M86.7,113.7c-22.5-24.6-52.7,11.1-71.9-6.4C31.9,129.5,65.9,96.3,86.7,113.7z"/>
</g>
</svg>
