<?xml version="1.0" encoding="utf-8"?>
<!-- Generator: Adobe Illustrator 18.1.1, SVG Export Plug-In . SVG Version: 6.00 Build 0)  -->
<svg version="1.1" id="Layer_1" xmlns="http://www.w3.org/2000/svg" xmlns:xlink="http://www.w3.org/1999/xlink" x="0px" y="0px"
	 viewBox="0 0 268.2 124.5" enable-background="new 0 0 268.2 124.5" xml:space="preserve">
<g>
	<radialGradient id="SVGID_1_" cx="47.873" cy="79.5378" r="37.3763" gradientUnits="userSpaceOnUse">
		<stop  offset="0" style="stop-color:#00AEEF"/>
		<stop  offset="0.1215" style="stop-color:#009DDE"/>
		<stop  offset="0.3737" style="stop-color:#007CBC"/>
		<stop  offset="0.7311" style="stop-color:#004D8F"/>
		<stop  offset="1" style="stop-color:#172671"/>
	</radialGradient>
	<path fill="url(#SVGID_1_)" d="M82.5,92.5c-0.8-12.2-8.3-22.4-8.3-22.4C56.1,41.3,63.7,27.5,63.7,27.5c-16.3,8.5-30.2,22.2-36,30.3
		c-15.6,22-11.2,39.3-7.8,46.9C39.5,102.1,60.5,78,82.5,92.5z"/>
	<linearGradient id="SVGID_2_" gradientUnits="userSpaceOnUse" x1="98.6681" y1="86.6757" x2="56.5266" y2="77.6746">
		<stop  offset="0" style="stop-color:#FFFFFF"/>
		<stop  offset="1" style="stop-color:#FFFFFF;stop-opacity:0"/>
	</linearGradient>
	<path fill="url(#SVGID_2_)" d="M71.3,88.1c-0.8-6.4-6.1-12.3-6.1-12.3c-5.6-6.4-7.1-12.8-7.9-15.7c-1.2-4-0.4-8.3-1.4-9
		C50.4,47.7,39.5,65.3,36.6,71c-7,13.6-4.3,23.5-1.6,28.7C46.7,94.1,58.8,86.4,71.3,88.1z"/>
	<radialGradient id="SVGID_3_" cx="15.2781" cy="69.0365" r="30.724" gradientUnits="userSpaceOnUse">
		<stop  offset="0" style="stop-color:#FFFFFF"/>
		<stop  offset="1" style="stop-color:#FFFFFF;stop-opacity:0"/>
	</radialGradient>
	<path fill="url(#SVGID_3_)" d="M28.3,102.5c-2.7-6.7-8.1-25.3,6.9-45.1c3.8-5.1,11.4-13.1,20.8-19.7c-11,7-19.9,16.3-24.1,21.9
		c-14.7,19.4-10.8,36.6-7.6,44.2C25.6,103.5,26.9,103,28.3,102.5z"/>
	<path d="M33.7,78.9c0.5,0.8,1,1.7,1.5,2.6l0.1,0.1c1.8,2.4,3.8,3.2,5.7,3.9c0.9,0.4,1.8,0.7,2.5,1.2c0.3,0.3,0.7,0.9,0.8,1.2
		c0.1,0.5,0.1,1.2,0.1,1.9h0c-0.1,0.4-0.1,0.9-0.1,1.4c0,0.4,0,0.8,0,1.1L44,92.4L44,94.2c0,0.2,0,0.4,0,0.7c0,0.3-0.1,0.6-0.1,1
		c-0.1,0.4-0.1,0.8-0.2,1.2c1.5-0.7,3-1.4,4.5-2.1c0-0.1,0-0.1,0-0.2c0.3-2.5,0.8-4,1.2-4.6c6.8,0.9,12-3.6,16.4-14.1
		c2-4.7,4.8-8,6.6-9l-2.9-0.3l-3.9-0.2C55.3,67.2,49.4,71,47.4,78.3c-0.1-0.8-0.2-1.4-0.2-1.7c0.1-0.2,0.1-0.5,0.2-0.7
		c0.1-0.5,0.2-0.8,0.4-1.1l0.1-0.2c1.6-3.2,3-5.8,4-8.4c1.1-2.5,2.3-4.5,3.2-5.2l3-2.4l-3.8-0.1c-0.1,0-0.2,0-0.4,0
		c-4.1,0-9.1,1.8-9.3,10.5c0,0.1,0,0.3,0,0.5c-0.5-1.7-0.6-3-0.7-4.4c-0.2-2.6-0.4-5.1-3.5-8.5l-2.4-1.7c0.5,1.5,0.8,6.3,1,8.1
		c0.3,2.6,0.7,5.4,2.1,8.2c-2.8-2.9-7.1-4.4-13.5-4.9L23.1,66l3.4,2.8C29.2,71.1,30.9,74,33.7,78.9z"/>
	<g>
		<radialGradient id="SVGID_4_" cx="94.1059" cy="110.2234" r="57.7865" gradientUnits="userSpaceOnUse">
			<stop  offset="0" style="stop-color:#80C342"/>
			<stop  offset="0.662" style="stop-color:#007B36"/>
			<stop  offset="1" style="stop-color:#005D2C"/>
		</radialGradient>
		<path fill="url(#SVGID_4_)" d="M80.4,105.3c1.4-3.1,2.1-6.2,1.6-9.1c-20.4-7.3-41.3,13.3-59.8,12.9c0.1,0.1,0.2,0.2,0.2,0.3
			C39.8,111.2,61.1,91.1,80.4,105.3z"/>
		<radialGradient id="SVGID_5_" cx="94.1059" cy="110.2234" r="57.7867" gradientUnits="userSpaceOnUse">
			<stop  offset="0" style="stop-color:#80C342"/>
			<stop  offset="0.662" style="stop-color:#007B36"/>
			<stop  offset="1" style="stop-color:#005D2C"/>
		</radialGradient>
		<path fill="url(#SVGID_5_)" d="M24.4,112c18.3,22.9,43.1,7.4,43.1,7.4c5.2-3.3,9.6-7.9,12.1-12.7C61.1,98.5,40.5,114.5,24.4,112z"
			/>
	</g>
	
		<radialGradient id="SVGID_6_" cx="86.2663" cy="50.0515" r="36.6932" gradientTransform="matrix(1.0213 0 0 1.0341 -0.2361 -3.5357)" gradientUnits="userSpaceOnUse">
		<stop  offset="0" style="stop-color:#FFDE17"/>
		<stop  offset="1" style="stop-color:#F15A29"/>
	</radialGradient>
	<path fill="url(#SVGID_6_)" d="M101.4,74.7c0,0.6,0,1.4,0,2.2s-0.1,1.7-0.1,2.6c0,0.6-0.2,1.1-0.4,1.5c-0.3,0.4-0.8,0.6-1.6,0.7
		c-0.4,0-0.7,0.1-1.1,0.1c-0.4,0-0.7,0-0.9,0c-0.2,0-0.3,0.1-0.3,0.4c0,0.1,0.1,0.2,0.2,0.3c0.1,0.1,0.3,0.1,0.5,0.1
		c1.2,0,2.3,0,3.3-0.1c1,0,1.9-0.1,2.5-0.1c0.5,0,1.3,0,2.4,0.1c1.1,0,2.3,0,3.6,0c0.2,0,0.4,0,0.5-0.1c0.1-0.1,0.2-0.1,0.2-0.3
		c0-0.1,0-0.2-0.1-0.3c-0.1-0.1-0.2-0.1-0.3-0.1c-0.2,0-0.5,0-0.9,0c-0.4,0-0.7-0.1-1-0.1c-0.7-0.1-1.1-0.4-1.4-0.8
		c-0.2-0.4-0.4-0.9-0.4-1.5c-0.1-0.9-0.1-1.7-0.1-2.6c0-0.8,0-1.6,0-2.2l3.7,0c0.4,0,0.6,0,0.8-0.1c0.2-0.1,0.3-0.2,0.4-0.4
		c0.2-0.3,0.3-0.7,0.5-1.3c0.2-0.6,0.2-1,0.3-1.2c0-0.2,0-0.3-0.1-0.4c-0.1-0.1-0.2-0.1-0.3-0.1c-0.1,0-0.3,0.1-0.6,0.2
		c-0.3,0.1-0.7,0.2-1.3,0.2l-3.3,0l0-12.9c0-1.3,0-2.6,0-3.7s0-1.9,0-2.2c0-0.2,0-0.4-0.1-0.5c-0.1-0.1-0.2-0.2-0.4-0.2
		c-0.2,0-0.4,0.1-0.6,0.2c-0.2,0.1-0.4,0.3-0.5,0.5c-0.1,0.1-0.7,0.9-1.8,2.2c-1.1,1.4-2.5,3-4.1,5c-1.6,2-3.2,3.9-4.8,5.9
		c-1.6,2-3,3.6-4.1,5c-1.1,1.4-1.7,2.1-1.8,2.2c-0.1,0.1-0.2,0.2-0.3,0.4c-0.1,0.2-0.2,0.4-0.2,0.6c0,0.2,0.1,0.4,0.3,0.5
		c0.2,0.1,0.5,0.1,0.7,0.1L101.4,74.7z M101.4,71.6l-9.6,0c0.4-0.5,1-1.3,2-2.5c0.9-1.2,1.9-2.5,3-3.8c1.1-1.4,2-2.6,2.9-3.7
		c0.9-1.1,1.4-1.9,1.7-2.2l0.1,0L101.4,71.6z"/>
	<g>
		<linearGradient id="SVGID_7_" gradientUnits="userSpaceOnUse" x1="123.2999" y1="52.8946" x2="123.2999" y2="88.108">
			<stop  offset="0" style="stop-color:#80C342"/>
			<stop  offset="0.662" style="stop-color:#007B36"/>
			<stop  offset="1" style="stop-color:#005D2C"/>
		</linearGradient>
		<path fill="url(#SVGID_7_)" d="M121.8,83c1,0,2-0.1,3-0.3c1-0.2,2-0.6,2.9-1.1c1.3-0.8,2.2-1.7,2.7-2.8c0.5-1,0.7-2.1,0.7-3.1
			c0-1.6-0.5-3-1.5-4.3c-1-1.3-2.6-2.7-4.9-4.2l-1.1-0.7c-1.6-1-2.6-1.9-3.2-2.6s-0.9-1.5-0.9-2.2c0-1,0.4-1.8,1.1-2.5
			c0.8-0.6,1.8-1,3.2-1c1.2,0,2.1,0.2,2.8,0.6c0.6,0.4,1.1,0.7,1.4,1.1c0.4,0.5,0.7,0.9,0.8,1.3c0.1,0.4,0.2,0.7,0.2,0.9
			c0,0.4,0.1,0.6,0.4,0.6c0.1,0,0.3-0.1,0.3-0.2c0.1-0.2,0.1-0.4,0.1-0.8c0-1.3,0-2.2,0-2.8c0-0.6,0-1,0-1.2c0-0.1-0.1-0.2-0.1-0.3
			c-0.1-0.1-0.2-0.1-0.4-0.1c-0.5-0.1-1.1-0.2-1.9-0.4c-0.8-0.1-1.8-0.2-3-0.2c-2.6,0-4.7,0.6-6.2,1.8c-1.5,1.2-2.3,2.7-2.2,4.5
			c0,1.3,0.4,2.6,1.3,3.9s2.3,2.6,4.4,4l1.8,1.2c1.5,1.1,2.6,2,3.1,2.9c0.5,0.8,0.8,1.7,0.7,2.5c0,0.9-0.4,1.8-1.2,2.6
			c-0.8,0.8-2.1,1.2-3.7,1.2c-1.2,0-2.3-0.2-3.3-0.8c-1-0.5-1.7-1.4-2.2-2.6c-0.1-0.3-0.2-0.6-0.3-0.9c-0.1-0.3-0.1-0.6-0.1-0.8
			c0-0.1,0-0.3-0.1-0.4c0-0.1-0.2-0.2-0.3-0.2c-0.1,0-0.3,0.1-0.3,0.2c-0.1,0.2-0.1,0.4-0.1,0.6c0,0.3,0,0.9-0.1,1.7
			c0,0.8,0,1.7,0,2.7c0,0.4,0.1,0.6,0.1,0.8c0.1,0.1,0.3,0.3,0.6,0.4c0.8,0.3,1.6,0.5,2.5,0.7C119.7,83,120.7,83,121.8,83z"/>
	</g>
	<g>
		<linearGradient id="SVGID_8_" gradientUnits="userSpaceOnUse" x1="141.6734" y1="52.8946" x2="141.6734" y2="88.1082">
			<stop  offset="0" style="stop-color:#80C342"/>
			<stop  offset="0.662" style="stop-color:#007B36"/>
			<stop  offset="1" style="stop-color:#005D2C"/>
		</linearGradient>
		<path fill="url(#SVGID_8_)" d="M135.5,72.8c0,1.6,0,3,0,4.2c0,1.2-0.1,2.2-0.1,2.9c-0.1,0.5-0.1,0.9-0.3,1.2
			c-0.1,0.3-0.3,0.5-0.7,0.6c-0.1,0-0.3,0.1-0.5,0.1c-0.2,0-0.4,0-0.6,0c-0.2,0-0.3,0-0.4,0.1c-0.1,0-0.1,0.1-0.1,0.2
			c0,0.2,0.2,0.3,0.6,0.3c0.3,0,0.7,0,1.1,0c0.4,0,0.8,0,1.1,0c0.4,0,0.7,0,1.1,0c0.3,0,0.6,0,0.7,0c0.5,0,1,0,1.5,0
			c0.5,0,1.1,0,1.8,0.1c0.7,0,4.1,0.1,5,0.1c0.9,0,1.9,0,3.1,0c0.6,0,1,0,1.2-0.1c0.2-0.1,0.4-0.3,0.5-0.8c0.1-0.2,0.1-0.6,0.2-1.1
			c0.1-0.5,0.1-1,0.2-1.5c0-0.5,0.1-0.9,0.1-1.2c0-0.2,0-0.3,0-0.4c0-0.1-0.1-0.2-0.2-0.2c-0.1,0-0.2,0-0.2,0.1
			c0,0.1-0.1,0.2-0.1,0.4c-0.1,0.7-0.3,1.2-0.5,1.6c-0.2,0.4-0.5,0.7-0.9,0.9c-0.4,0.2-0.9,0.3-1.5,0.4c-0.6,0-1.1,0.1-1.5,0.1
			c-1.6,0-5.2-0.2-5.7-0.6c-0.5-0.4-0.7-1.1-0.7-2.3c0-0.3,0-0.9,0-1.5c0-0.7,0-1.3,0-2c0-0.7,0-1.2,0-1.6l0-2.6c0-0.1,0-0.2,0-0.2
			c0-0.1,0.1-0.1,0.2-0.1c0.3,0,0.7,0,1.4,0c0.6,0,1.3,0,1.9,0c0.6,0,3.7,0.1,3.9,0.1c0.6,0.1,1,0.2,1.3,0.4
			c0.3,0.2,0.4,0.5,0.5,0.9c0,0.2,0.1,0.4,0.1,0.6c0,0.2,0,0.4,0,0.6c0,0.1,0,0.2,0.1,0.2c0,0.1,0.1,0.1,0.2,0.1
			c0.1,0,0.2-0.1,0.2-0.2c0-0.1,0-0.3,0-0.4c0-0.2,0-0.5,0.1-1c0-0.5,0.1-0.9,0.1-1.3c0.1-0.8,0.1-1.4,0.2-1.8
			c0.1-0.4,0.1-0.6,0.1-0.7c0-0.1,0-0.2-0.1-0.2c0,0-0.1-0.1-0.2-0.1c-0.1,0-0.2,0-0.2,0.1c-0.1,0.1-0.2,0.2-0.3,0.3
			c-0.1,0.2-0.3,0.3-0.6,0.4c-0.2,0.1-0.6,0.1-0.9,0.2c-0.3,0-0.8,0-1.5,0.1c-0.7,0-4.1,0-4.8,0c-0.7,0-1.2,0-1.5,0
			c-0.1,0-0.2,0-0.2-0.1c0-0.1,0-0.2,0-0.3l0-8.5c0-0.1,0-0.2,0.1-0.3c0-0.1,0.1-0.1,0.2-0.1c0.2,0,0.7,0,1.3,0c0.6,0,1.3,0,1.9,0
			c0.6,0,3.7,0.1,3.9,0.1c0.8,0.1,1.3,0.2,1.6,0.4c0.3,0.2,0.5,0.5,0.6,0.8c0.1,0.2,0.1,0.4,0.2,0.7c0,0.2,0,0.4,0,0.5
			c0,0.2,0,0.3,0.1,0.3c0,0.1,0.1,0.1,0.2,0.1c0.1,0,0.2,0,0.2-0.1c0-0.1,0.1-0.2,0.1-0.2c0-0.2,0.1-0.6,0.1-1.1
			c0-0.5,0.1-0.9,0.1-1.1c0.1-0.7,0.1-1.3,0.2-1.6c0.1-0.3,0.1-0.5,0.1-0.6c0-0.1,0-0.2,0-0.2c0-0.1-0.1-0.1-0.2-0.1
			c-0.1,0-0.2,0-0.3,0.1c-0.1,0-0.2,0.1-0.3,0.1c-0.1,0-0.3,0.1-0.6,0.1c-0.2,0-0.5,0.1-0.8,0.1c-0.2,0-0.6,0-1.4,0
			c-0.7,0-4.2,0-5.1,0c-0.9,0-1.8,0-2.5,0c-0.8,0-1.3,0-1.6,0c-0.2,0-0.5,0-0.9,0c-0.3,0-0.7,0-1.1,0c-0.4,0-0.8,0-1.3,0
			c-0.4,0-0.9,0-1.3,0c-0.2,0-0.4,0-0.5,0.1c-0.1,0-0.2,0.1-0.2,0.2c0,0.1,0,0.2,0.1,0.2c0.1,0,0.2,0.1,0.4,0.1c0.2,0,0.5,0,0.7,0
			c0.2,0,0.4,0,0.5,0.1c0.5,0.1,0.9,0.3,1.1,0.6c0.2,0.3,0.3,0.7,0.3,1.3c0,0.3,0,0.7,0,1.2c0,0.5,0,1.1,0,2c0,0.9,0,2.2,0,3.9
			L135.5,72.8z"/>
	</g>
	<g>
		<linearGradient id="SVGID_9_" gradientUnits="userSpaceOnUse" x1="165.9825" y1="52.8945" x2="165.9825" y2="88.108">
			<stop  offset="0" style="stop-color:#80C342"/>
			<stop  offset="0.662" style="stop-color:#007B36"/>
			<stop  offset="1" style="stop-color:#005D2C"/>
		</linearGradient>
		<path fill="url(#SVGID_9_)" d="M168.5,73.7c0.1,0,0.1,0,0.2,0.1c0.1,0,0.1,0.1,0.1,0.2l2.5,7.1c0.1,0.2,0.1,0.4,0,0.5
			c-0.1,0.1-0.2,0.2-0.3,0.3c-0.2,0-0.3,0-0.3,0.1c-0.1,0-0.1,0.1-0.1,0.2c0,0.1,0.1,0.2,0.3,0.2c0.2,0,0.4,0,0.7,0.1
			c1.3,0,2.5,0,3.5,0c1.1,0,1.9,0,2.5,0c0.6,0,1,0,1.2-0.1c0.2,0,0.3-0.1,0.3-0.3c0-0.1,0-0.2-0.1-0.2c-0.1,0-0.2,0-0.3,0
			c-0.2,0-0.4,0-0.6,0c-0.2,0-0.5-0.1-0.7-0.1c-0.3-0.1-0.7-0.3-1.2-0.8c-0.5-0.5-1-1.4-1.6-2.9c-0.5-1.3-1.2-3-2-5.1
			c-0.8-2.1-1.6-4.2-2.4-6.4s-1.6-4.1-2.2-5.8c-0.6-1.7-1-2.8-1.3-3.3c-0.2-0.4-0.3-0.7-0.4-0.8c-0.1-0.2-0.2-0.2-0.4-0.2
			c-0.2,0-0.3,0.1-0.4,0.3c-0.1,0.2-0.3,0.6-0.5,1l-8,21c-0.3,0.8-0.6,1.5-1,2.1c-0.4,0.5-0.9,0.8-1.7,1c-0.1,0-0.3,0-0.5,0
			c-0.2,0-0.4,0-0.5,0c-0.1,0-0.2,0-0.3,0.1c-0.1,0-0.1,0.1-0.1,0.2c0,0.1,0,0.2,0.1,0.3c0.1,0,0.3,0.1,0.5,0.1c0.9,0,1.6,0,2.4-0.1
			s1.2,0,1.4-0.1c0.5,0,1.1,0,1.7,0c0.6,0,1.2,0,1.7,0c0.2,0,0.3,0,0.4-0.1c0.1,0,0.1-0.1,0.1-0.3c0-0.1,0-0.2-0.1-0.2
			s-0.2-0.1-0.4-0.1l-0.5,0c-0.5,0-0.8-0.1-1-0.3c-0.2-0.2-0.3-0.4-0.3-0.7c0-0.2,0-0.5,0.1-0.9c0.1-0.4,0.2-0.8,0.4-1.2l1.7-4.8
			c0-0.1,0.1-0.2,0.1-0.2c0,0,0.1-0.1,0.2-0.1L168.5,73.7z M162.1,72c-0.1,0-0.1,0-0.1-0.1c0,0,0-0.1,0-0.2l2.9-8.2
			c0-0.1,0-0.1,0.1-0.2c0-0.1,0.1-0.1,0.1-0.1c0,0,0.1,0,0.1,0.1c0,0.1,0,0.1,0.1,0.2l2.8,8.3c0,0.1,0,0.1,0,0.1
			c0,0-0.1,0.1-0.2,0.1L162.1,72z"/>
	</g>
	<g>
		<linearGradient id="SVGID_10_" gradientUnits="userSpaceOnUse" x1="187.7604" y1="52.8945" x2="187.7604" y2="88.108">
			<stop  offset="0" style="stop-color:#80C342"/>
			<stop  offset="0.662" style="stop-color:#007B36"/>
			<stop  offset="1" style="stop-color:#005D2C"/>
		</linearGradient>
		<path fill="url(#SVGID_10_)" d="M186.5,82.8c0.9,0,1.9-0.1,2.8-0.3c0.9-0.2,1.8-0.6,2.7-1.1c1.2-0.8,2-1.7,2.5-2.8
			c0.4-1,0.6-2.1,0.5-3.1c-0.1-1.6-0.6-3-1.5-4.3c-1-1.3-2.5-2.7-4.7-4.2l-1-0.7c-1.5-1-2.5-1.9-3.1-2.6c-0.6-0.7-0.9-1.5-0.9-2.2
			c0-1,0.3-1.9,1-2.5c0.7-0.6,1.7-1,3-1c1.1,0,2,0.2,2.6,0.6c0.6,0.4,1,0.7,1.3,1.1c0.4,0.5,0.7,0.9,0.8,1.3
			c0.2,0.4,0.2,0.7,0.2,0.9c0,0.4,0.1,0.6,0.4,0.6c0.1,0,0.2-0.1,0.3-0.2c0.1-0.2,0.1-0.4,0-0.8c-0.1-1.3-0.1-2.2-0.1-2.8
			c0-0.6,0-1,0-1.2c0-0.1-0.1-0.2-0.1-0.3c-0.1-0.1-0.2-0.1-0.4-0.1c-0.5-0.1-1.1-0.2-1.8-0.4c-0.8-0.1-1.7-0.2-2.9-0.2
			c-2.5,0-4.4,0.6-5.8,1.8c-1.4,1.2-2.1,2.7-2,4.5c0,1.3,0.5,2.6,1.4,3.9c0.9,1.3,2.3,2.6,4.3,4l1.7,1.2c1.5,1.1,2.5,2,3,2.9
			c0.5,0.8,0.8,1.7,0.8,2.5c0,0.9-0.3,1.8-1,2.6c-0.7,0.8-1.9,1.2-3.5,1.2c-1.1,0-2.1-0.2-3.1-0.8c-0.9-0.5-1.6-1.4-2.1-2.6
			c-0.1-0.3-0.2-0.6-0.3-0.9c-0.1-0.3-0.1-0.6-0.1-0.8c0-0.1,0-0.3-0.1-0.4c0-0.1-0.1-0.2-0.3-0.2c-0.1,0-0.2,0.1-0.3,0.2
			c-0.1,0.2-0.1,0.4-0.1,0.6c0,0.3,0,0.9,0,1.7c0,0.8,0,1.7,0.1,2.7c0,0.4,0.1,0.6,0.2,0.8c0.1,0.1,0.3,0.3,0.6,0.4
			c0.8,0.3,1.6,0.5,2.4,0.7C184.6,82.8,185.5,82.8,186.5,82.8z"/>
	</g>
	<g>
		<linearGradient id="SVGID_11_" gradientUnits="userSpaceOnUse" x1="260.7745" y1="52.8945" x2="260.7745" y2="88.108">
			<stop  offset="0" style="stop-color:#80C342"/>
			<stop  offset="0.662" style="stop-color:#007B36"/>
			<stop  offset="1" style="stop-color:#005D2C"/>
		</linearGradient>
		<path fill="url(#SVGID_11_)" d="M259.5,82.8c0.9,0,1.9-0.1,2.8-0.3c0.9-0.2,1.8-0.6,2.7-1.1c1.2-0.8,2-1.7,2.5-2.8
			c0.4-1,0.6-2.1,0.5-3.1c-0.1-1.6-0.6-3-1.5-4.3c-1-1.3-2.5-2.7-4.7-4.2l-1-0.7c-1.5-1-2.5-1.9-3.1-2.6c-0.6-0.7-0.9-1.5-0.9-2.2
			c0-1,0.3-1.9,1-2.5c0.7-0.6,1.7-1,3-1c1.1,0,2,0.2,2.6,0.6c0.6,0.4,1,0.7,1.3,1.1c0.4,0.5,0.7,0.9,0.8,1.3s0.2,0.7,0.2,0.9
			c0,0.4,0.1,0.6,0.4,0.6c0.1,0,0.2-0.1,0.3-0.2c0.1-0.2,0.1-0.4,0-0.8c-0.1-1.3-0.1-2.2-0.1-2.8c0-0.6,0-1,0-1.2
			c0-0.1-0.1-0.2-0.1-0.3c-0.1-0.1-0.2-0.1-0.4-0.1c-0.5-0.1-1.1-0.2-1.8-0.4c-0.8-0.1-1.7-0.2-2.9-0.2c-2.5,0-4.4,0.6-5.8,1.8
			c-1.4,1.2-2.1,2.7-2,4.5c0,1.3,0.5,2.6,1.4,3.9c0.9,1.3,2.3,2.6,4.3,4l1.7,1.2c1.5,1.1,2.5,2,3,2.9c0.5,0.8,0.8,1.7,0.8,2.5
			c0,0.9-0.3,1.8-1,2.6c-0.7,0.8-1.9,1.2-3.5,1.2c-1.1,0-2.1-0.2-3.1-0.8c-0.9-0.5-1.6-1.4-2.1-2.6c-0.1-0.3-0.2-0.6-0.3-0.9
			c-0.1-0.3-0.1-0.6-0.1-0.8c0-0.1,0-0.3-0.1-0.4c0-0.1-0.1-0.2-0.3-0.2c-0.1,0-0.2,0.1-0.3,0.2c-0.1,0.2-0.1,0.4-0.1,0.6
			c0,0.3,0,0.9,0,1.7c0,0.8,0,1.7,0.1,2.7c0,0.4,0.1,0.6,0.2,0.8c0.1,0.1,0.3,0.3,0.6,0.4c0.8,0.3,1.6,0.5,2.4,0.7
			C257.6,82.8,258.5,82.8,259.5,82.8z"/>
	</g>
	<g>
		<linearGradient id="SVGID_12_" gradientUnits="userSpaceOnUse" x1="209.8901" y1="52.8945" x2="209.8901" y2="88.1082">
			<stop  offset="0" style="stop-color:#80C342"/>
			<stop  offset="0.662" style="stop-color:#007B36"/>
			<stop  offset="1" style="stop-color:#005D2C"/>
		</linearGradient>
		<path fill="url(#SVGID_12_)" d="M209.7,82.7c2.7,0,5-0.7,7-1.9c2-1.2,3.5-2.9,4.6-4.9c1.1-2.1,1.6-4.4,1.6-7
			c0-3.9-1.2-6.9-3.4-9.1c-2.3-2.2-5.4-3.3-9.4-3.3c-2.4,0-4.4,0.5-6.1,1.3c-1.7,0.8-3,1.9-4.1,3.2c-1,1.3-1.8,2.7-2.3,4.2
			c-0.5,1.5-0.7,3-0.7,4.5c0,2,0.4,4,1.3,6c0.9,2,2.2,3.7,4.1,5C204.2,82,206.7,82.7,209.7,82.7z M211,81c-2,0-3.8-0.6-5.2-1.7
			c-1.4-1.1-2.6-2.6-3.3-4.5c-0.8-1.9-1.2-4-1.2-6.3c0-2.8,0.4-4.9,1.2-6.4c0.8-1.5,1.8-2.6,3-3.2c1.2-0.6,2.4-0.9,3.7-0.9
			c1.8,0,3.3,0.5,4.7,1.5c1.4,1,2.5,2.4,3.3,4.2c0.8,1.8,1.2,4,1.2,6.5c-0.1,3.2-0.5,5.5-1.4,7.1s-1.9,2.6-3.1,3.1
			C212.8,80.9,211.8,81.1,211,81z"/>
	</g>
	<g>
		<linearGradient id="SVGID_13_" gradientUnits="userSpaceOnUse" x1="237.4614" y1="52.8946" x2="237.4614" y2="88.1081">
			<stop  offset="0" style="stop-color:#80C342"/>
			<stop  offset="0.662" style="stop-color:#007B36"/>
			<stop  offset="1" style="stop-color:#005D2C"/>
		</linearGradient>
		<path fill="url(#SVGID_13_)" d="M229.3,63.5L229.3,63.5c0.3,0.2,0.8,0.8,1.5,1.7c0.8,0.9,1.7,1.9,2.7,3.1c1.1,1.2,2.2,2.4,3.4,3.6
			c1.1,1.2,2.3,2.4,3.4,3.6c1.2,1.3,2.3,2.4,3.3,3.5c1,1.1,1.9,2,2.6,2.7c0.2,0.2,0.4,0.4,0.5,0.5c0.2,0.1,0.4,0.2,0.5,0.2
			c0.1,0,0.2-0.1,0.3-0.2c0.1-0.2,0.1-0.4,0.1-0.8l0.4-21.1c0-0.9,0.1-1.6,0.3-2c0.2-0.4,0.5-0.7,0.9-0.8c0.2,0,0.4-0.1,0.5-0.1
			c0.1,0,0.3,0,0.5,0c0.4,0,0.6-0.1,0.6-0.3c0-0.1-0.1-0.2-0.2-0.2c-0.1,0-0.3-0.1-0.5,0c-0.8,0-1.5,0-2,0.1c-0.6,0-0.9,0-1.1,0.1
			c-0.3,0-0.9,0-1.6,0c-0.7,0-1.4,0-2.3,0c-0.2,0-0.4,0-0.6,0.1c-0.2,0-0.2,0.1-0.2,0.3c0,0.1,0,0.2,0.1,0.2s0.2,0.1,0.4,0.1
			c0.2,0,0.5,0,0.8,0c0.3,0,0.6,0.1,0.9,0.2c0.4,0.1,0.6,0.4,0.8,0.9c0.2,0.4,0.3,1.1,0.3,2.1l0.3,15l-0.2,0
			c-0.2-0.2-0.7-0.8-1.6-1.7c-0.8-0.9-1.7-1.9-2.8-3c-1-1.1-1.9-2.1-2.6-2.9c-1.6-1.6-3.1-3.3-4.5-4.8s-2.6-2.9-3.6-4
			c-1-1.1-1.5-1.7-1.7-1.9c-0.3-0.3-0.5-0.6-0.7-0.7c-0.2-0.2-0.3-0.3-0.5-0.3c-0.2,0-0.3,0.1-0.3,0.3c-0.1,0.2-0.1,0.5-0.1,0.8
			L227,77.2c0,1.4-0.1,2.5-0.2,3.1c-0.1,0.6-0.4,1-0.8,1.1c-0.2,0.1-0.5,0.1-0.7,0.1c-0.3,0-0.5,0-0.7,0c-0.2,0-0.3,0-0.4,0.1
			c-0.1,0-0.1,0.1-0.1,0.2c0,0.1,0.1,0.2,0.2,0.3c0.1,0,0.3,0.1,0.5,0.1c0.8,0,1.6,0,2.2-0.1c0.6,0,1,0,1.2-0.1c0.3,0,0.8,0,1.4,0
			c0.6,0,1.5,0,2.5,0c0.2,0,0.4,0,0.5-0.1c0.1,0,0.2-0.1,0.2-0.3c0-0.1,0-0.2-0.1-0.2c-0.1,0-0.2-0.1-0.4-0.1c-0.3,0-0.5,0-0.8,0
			c-0.3,0-0.6-0.1-0.8-0.2c-0.3-0.1-0.6-0.4-0.8-1c-0.2-0.5-0.3-1.5-0.3-2.7L229.3,63.5z"/>
	</g>
	<path fill="#FFFFFF" d="M110.5,89.1c-0.1-0.3-0.3-0.5-0.6-0.7c-0.2-0.2-0.5-0.4-0.9-0.5c-0.3-0.1-0.8-0.2-1.2-0.3
		c-0.5-0.1-1-0.1-1.6-0.1h-3.3c-0.8,0-1.4,0-1.9,0.1c-0.5,0.1-1,0.3-1.4,0.5c-0.4,0.2-0.7,0.5-0.9,0.8c-0.2,0.3-0.3,0.7-0.4,1.1
		c-0.1,0.4-0.1,0.9-0.1,1.4c0,0.5,0,1.1,0,1.7s0,1.2,0,1.7c0,0.5,0.1,1,0.1,1.4c0.1,0.4,0.2,0.8,0.4,1.1c0.2,0.3,0.5,0.6,0.9,0.8
		c0.4,0.2,0.8,0.4,1.4,0.5c0.5,0.1,1.2,0.1,1.9,0.1h3.3c0.6,0,1.2,0,1.6-0.1c0.5-0.1,0.9-0.2,1.2-0.3c0.4-0.1,0.7-0.3,0.9-0.5
		c0.2-0.2,0.4-0.5,0.6-0.8c0.1-0.3,0.2-0.6,0.3-1c0.1-0.4,0.1-0.8,0.1-1.2v-2h-6.7v1.6h4.9v0.4c0,0.3,0,0.6,0,0.9
		c0,0.2-0.1,0.4-0.2,0.6c-0.1,0.2-0.2,0.3-0.3,0.4c-0.1,0.1-0.3,0.2-0.5,0.2c-0.2,0.1-0.5,0.1-0.8,0.1c-0.3,0-0.7,0-1.2,0h-3.3
		c-0.5,0-1,0-1.4,0c-0.3,0-0.6-0.1-0.8-0.2c-0.2-0.1-0.3-0.2-0.5-0.4c-0.1-0.2-0.2-0.4-0.2-0.7c-0.1-0.3-0.1-0.7-0.1-1.1
		c0-0.5,0-1,0-1.6s0-1.2,0-1.6c0-0.4,0-0.8,0.1-1.1c0.1-0.3,0.1-0.5,0.2-0.7c0.1-0.2,0.3-0.3,0.5-0.4c0.2-0.1,0.5-0.2,0.8-0.2
		c0.4,0,0.8,0,1.4,0h3.3c0.6,0,1.1,0,1.5,0.1c0.4,0,0.7,0.1,0.9,0.3c0.2,0.1,0.4,0.3,0.4,0.6c0.1,0.3,0.2,0.7,0.2,1.2v0.2h1.7v-0.2
		c0-0.4,0-0.8-0.1-1.1C110.7,89.7,110.6,89.4,110.5,89.1z"/>
	<path fill="#FFFFFF" d="M127.4,89.2c-0.1-0.3-0.3-0.5-0.5-0.7c-0.2-0.2-0.5-0.3-0.9-0.5c-0.4-0.1-0.8-0.2-1.3-0.3
		c-0.5-0.1-1.2-0.1-1.9-0.1h-7.2v10.7h1.7v-4h5.3c0.5,0,1,0,1.4,0c0.4,0,0.7,0.1,0.9,0.1c0.2,0,0.4,0.1,0.5,0.2
		c0.1,0.1,0.2,0.2,0.2,0.3c0.1,0.1,0.1,0.3,0.1,0.5c0,0.2,0,0.5,0,0.8v2.2h1.7v-2.2c0-0.4,0-0.7-0.1-1c0-0.3-0.1-0.6-0.2-0.8
		c-0.1-0.2-0.3-0.5-0.6-0.6c0,0-0.1,0-0.1-0.1c0,0,0.1,0,0.1-0.1c0.3-0.2,0.5-0.4,0.6-0.6c0.2-0.2,0.3-0.6,0.3-0.9
		c0.1-0.3,0.1-0.7,0.1-1.2c0-0.3,0-0.6,0-0.9C127.5,89.7,127.4,89.4,127.4,89.2z M125.8,90.9c0,0.3,0,0.6,0,0.8c0,0.2,0,0.4-0.1,0.5
		c0,0.1-0.1,0.2-0.2,0.3c-0.1,0.1-0.3,0.1-0.5,0.2c-0.2,0.1-0.5,0.1-0.9,0.1c-0.4,0-0.8,0-1.4,0h-5.5v-3.5h5.5c0.5,0,1,0,1.4,0
		c0.4,0,0.7,0,0.9,0.1c0.2,0,0.4,0.1,0.5,0.2c0.1,0.1,0.2,0.1,0.2,0.2c0.1,0.1,0.1,0.3,0.1,0.4C125.8,90.4,125.8,90.6,125.8,90.9z"
		/>
	<path fill="#FFFFFF" d="M144.1,90c-0.1-0.4-0.2-0.8-0.4-1.1c-0.2-0.3-0.5-0.6-0.9-0.8c-0.4-0.2-0.8-0.4-1.4-0.5
		c-0.5-0.1-1.2-0.1-1.9-0.1h-3.7c-0.8,0-1.4,0-1.9,0.1c-0.5,0.1-1,0.3-1.4,0.5c-0.4,0.2-0.7,0.5-0.9,0.8c-0.2,0.3-0.3,0.7-0.4,1.1
		c-0.1,0.4-0.1,0.9-0.1,1.4c0,0.5,0,1.1,0,1.7s0,1.2,0,1.7c0,0.5,0.1,1,0.1,1.4c0.1,0.4,0.2,0.8,0.4,1.1c0.2,0.3,0.5,0.6,0.9,0.8
		c0.4,0.2,0.8,0.4,1.4,0.5c0.5,0.1,1.2,0.1,1.9,0.1h3.7c0.8,0,1.4,0,1.9-0.1c0.5-0.1,1-0.3,1.4-0.5c0.4-0.2,0.7-0.5,0.9-0.8
		c0.2-0.3,0.3-0.7,0.4-1.1c0.1-0.4,0.1-0.9,0.2-1.4c0-0.5,0-1.1,0-1.7s0-1.2,0-1.7C144.2,90.9,144.2,90.4,144.1,90z M142.5,93.1
		c0,0.6,0,1.2,0,1.6c0,0.4,0,0.8-0.1,1.1c-0.1,0.3-0.1,0.5-0.2,0.7c-0.1,0.2-0.3,0.3-0.5,0.4c-0.2,0.1-0.5,0.2-0.8,0.2
		c-0.4,0-0.8,0-1.4,0h-3.7c-0.5,0-1,0-1.4,0c-0.3,0-0.6-0.1-0.8-0.2c-0.2-0.1-0.3-0.2-0.5-0.4c-0.1-0.2-0.2-0.4-0.2-0.7
		c-0.1-0.3-0.1-0.7-0.1-1.1c0-0.5,0-1,0-1.6s0-1.2,0-1.6c0-0.4,0-0.8,0.1-1.1c0.1-0.3,0.1-0.5,0.2-0.7c0.1-0.2,0.3-0.3,0.5-0.4
		c0.2-0.1,0.5-0.2,0.8-0.2c0.4,0,0.8,0,1.4,0h3.7c0.5,0,1,0,1.4,0c0.3,0,0.6,0.1,0.8,0.2c0.2,0.1,0.3,0.2,0.5,0.4
		c0.1,0.2,0.2,0.4,0.2,0.7c0.1,0.3,0.1,0.7,0.1,1.1C142.5,91.9,142.5,92.4,142.5,93.1z"/>
	<polygon fill="#FFFFFF" points="162.2,96.5 158.4,87.7 156.6,87.7 152.8,96.5 148.7,87.8 148.7,87.7 146.7,87.7 151.6,98.3 
		151.7,98.4 153.8,98.4 157.5,89.9 161.2,98.4 163.2,98.4 167.8,87.7 165.9,87.7 	"/>
	<path fill="#FFFFFF" d="M187.3,88.8c-0.1-0.2-0.3-0.4-0.6-0.6c-0.2-0.2-0.5-0.3-0.9-0.4c-0.3-0.1-0.8-0.2-1.2-0.2
		c-0.5,0-1-0.1-1.6-0.1h-1.2c-0.8,0-1.4,0-2,0.1c-0.6,0.1-1.1,0.1-1.5,0.3c-0.4,0.1-0.8,0.3-1,0.5c-0.3,0.2-0.5,0.4-0.7,0.6
		c-0.2,0.2-0.3,0.5-0.3,0.8c-0.1,0.3-0.1,0.6-0.1,0.9c0,0.3,0,0.6,0.1,0.9c0,0.3,0.1,0.5,0.2,0.8c0.1,0.2,0.3,0.5,0.6,0.6
		c0.2,0.2,0.6,0.3,0.9,0.4c0.4,0.1,0.8,0.2,1.4,0.3c0.5,0.1,1.2,0.1,2,0.1h1.7c0.7,0,1.2,0,1.6,0.1c0.4,0.1,0.7,0.1,0.9,0.3
		c0.2,0.1,0.3,0.3,0.4,0.4c0.1,0.2,0.1,0.5,0.1,0.8c0,0.3-0.1,0.6-0.1,0.8c-0.1,0.2-0.3,0.4-0.5,0.5c-0.3,0.1-0.6,0.2-1,0.3
		c-0.5,0.1-1,0.1-1.7,0.1h-1.6c-0.6,0-1.1,0-1.5,0c-0.4,0-0.7-0.1-0.9-0.2c-0.2-0.1-0.3-0.2-0.4-0.4c-0.1-0.2-0.1-0.5-0.1-0.8v-0.2
		h-1.7v0.2c0,0.3,0,0.6,0.1,0.9c0.1,0.3,0.2,0.6,0.3,0.8c0.1,0.2,0.3,0.4,0.6,0.6c0.2,0.2,0.5,0.3,0.9,0.4c0.3,0.1,0.8,0.2,1.2,0.2
		c0.5,0,1,0.1,1.6,0.1h1.6c0.7,0,1.3,0,1.8-0.1c0.5-0.1,1-0.2,1.4-0.3c0.4-0.1,0.7-0.3,1-0.5c0.3-0.2,0.5-0.4,0.6-0.7
		c0.2-0.3,0.3-0.5,0.3-0.8c0.1-0.3,0.1-0.6,0.1-0.9c0-0.3,0-0.6,0-0.9c0-0.3-0.1-0.6-0.2-0.8c-0.1-0.2-0.3-0.5-0.5-0.7
		c-0.2-0.2-0.5-0.3-0.9-0.5c-0.4-0.1-0.8-0.2-1.3-0.3c-0.5-0.1-1.1-0.1-1.8-0.1h-1.7c-0.5,0-1,0-1.4,0c-0.4,0-0.7-0.1-1-0.1
		c-0.2-0.1-0.4-0.1-0.6-0.2c-0.1-0.1-0.2-0.2-0.3-0.3c-0.1-0.1-0.1-0.2-0.1-0.4c0-0.2,0-0.3,0-0.5c0-0.3,0.1-0.6,0.2-0.8
		c0.1-0.2,0.3-0.3,0.5-0.5c0.3-0.1,0.7-0.2,1.2-0.3c0.5-0.1,1.2-0.1,2-0.1h1.2c0.6,0,1.1,0,1.5,0c0.4,0,0.7,0.1,0.9,0.2
		c0.2,0.1,0.3,0.2,0.4,0.4c0.1,0.2,0.1,0.5,0.1,0.8v0.2h1.7v-0.2c0-0.3,0-0.6-0.1-0.9C187.5,89.3,187.4,89,187.3,88.8z"/>
	<polygon fill="#FFFFFF" points="197.1,92.6 192.8,87.8 192.7,87.7 190.4,87.7 196.2,94 196.2,98.4 197.9,98.4 197.9,94 203.8,87.7 
		201.5,87.7 	"/>
	<path fill="#FFFFFF" d="M217.8,88.8c-0.1-0.2-0.3-0.4-0.6-0.6c-0.2-0.2-0.5-0.3-0.9-0.4c-0.3-0.1-0.8-0.2-1.2-0.2
		c-0.5,0-1-0.1-1.6-0.1h-1.2c-0.8,0-1.4,0-2,0.1c-0.6,0.1-1.1,0.1-1.5,0.3c-0.4,0.1-0.8,0.3-1,0.5c-0.3,0.2-0.5,0.4-0.7,0.6
		c-0.2,0.2-0.3,0.5-0.3,0.8c-0.1,0.3-0.1,0.6-0.1,0.9c0,0.3,0,0.6,0.1,0.9c0,0.3,0.1,0.5,0.2,0.8c0.1,0.2,0.3,0.5,0.6,0.6
		c0.2,0.2,0.6,0.3,0.9,0.4c0.4,0.1,0.8,0.2,1.4,0.3c0.5,0.1,1.2,0.1,2,0.1h1.7c0.7,0,1.2,0,1.6,0.1c0.4,0.1,0.7,0.1,0.9,0.3
		c0.2,0.1,0.3,0.3,0.4,0.4c0.1,0.2,0.1,0.5,0.1,0.8c0,0.3-0.1,0.6-0.1,0.8c-0.1,0.2-0.3,0.4-0.5,0.5c-0.3,0.1-0.6,0.2-1,0.3
		c-0.5,0.1-1,0.1-1.7,0.1h-1.6c-0.6,0-1.1,0-1.5,0c-0.4,0-0.7-0.1-0.9-0.2c-0.2-0.1-0.3-0.2-0.4-0.4c-0.1-0.2-0.1-0.5-0.1-0.8v-0.2
		h-1.7v0.2c0,0.3,0,0.6,0.1,0.9c0.1,0.3,0.2,0.6,0.3,0.8c0.1,0.2,0.3,0.4,0.6,0.6c0.2,0.2,0.5,0.3,0.9,0.4c0.3,0.1,0.8,0.2,1.2,0.2
		c0.5,0,1,0.1,1.6,0.1h1.6c0.7,0,1.3,0,1.8-0.1c0.5-0.1,1-0.2,1.4-0.3c0.4-0.1,0.7-0.3,1-0.5c0.3-0.2,0.5-0.4,0.6-0.7
		c0.2-0.3,0.3-0.5,0.3-0.8c0.1-0.3,0.1-0.6,0.1-0.9c0-0.3,0-0.6,0-0.9c0-0.3-0.1-0.6-0.2-0.8c-0.1-0.2-0.3-0.5-0.5-0.7
		c-0.2-0.2-0.5-0.3-0.9-0.5c-0.4-0.1-0.8-0.2-1.3-0.3c-0.5-0.1-1.1-0.1-1.8-0.1h-1.7c-0.5,0-1,0-1.4,0c-0.4,0-0.7-0.1-1-0.1
		c-0.2-0.1-0.4-0.1-0.6-0.2c-0.1-0.1-0.2-0.2-0.3-0.3c-0.1-0.1-0.1-0.2-0.1-0.4c0-0.2,0-0.3,0-0.5c0-0.3,0.1-0.6,0.2-0.8
		c0.1-0.2,0.3-0.3,0.5-0.5c0.3-0.1,0.7-0.2,1.2-0.3c0.5-0.1,1.2-0.1,2-0.1h1.2c0.6,0,1.1,0,1.5,0c0.4,0,0.7,0.1,0.9,0.2
		c0.2,0.1,0.3,0.2,0.4,0.4c0.1,0.2,0.1,0.5,0.1,0.8v0.2h1.7v-0.2c0-0.3,0-0.6-0.1-0.9C218,89.3,217.9,89,217.8,88.8z"/>
	<polygon fill="#FFFFFF" points="221.3,89.3 226.2,89.3 226.2,98.4 227.9,98.4 227.9,89.3 232.9,89.3 232.9,87.7 221.3,87.7 	"/>
	<polygon fill="#FFFFFF" points="237.7,98.4 248,98.4 248,96.9 239.4,96.9 239.4,93.7 247.6,93.7 247.6,92.2 239.4,92.2 239.4,89.3 
		248,89.3 248,87.7 237.7,87.7 	"/>
	<polygon fill="#FFFFFF" points="265.7,87.7 260.1,96.4 254.5,87.7 252.2,87.7 252.2,98.4 253.9,98.4 253.9,89.7 259.4,98.4 
		261,98.4 266.4,89.8 266.4,98.4 268.2,98.4 268.2,87.7 	"/>
	<path fill="#BCBEC0" d="M104.7,103.3L104.7,103.3L104.7,103.3c-0.2,0.3-0.3,0.5-0.4,0.6l-2.9,5.2l-1.3-4.1c-0.2-0.5-0.3-0.9-0.3-1
		l-0.2-0.7l-0.1,0c-0.2,0-0.4,0-0.6,0l-0.1,0l-0.3,2.1l-0.5,3.4l-0.2,0.9l0.1,0c0.2,0,0.3,0,0.4,0l0.1,0l0-0.1c0-0.3,0-0.5,0.1-0.6
		c0-0.1,0-0.3,0.1-0.4l0.5-3.4c0.1-0.5,0.1-0.8,0.1-0.9l0-0.2l1.8,5.6l0.1,0c0.2,0,0.4,0,0.5,0l0.1,0l2.3-4.2l0.8-1.4l0,0.2
		c0,0.4-0.1,0.8-0.1,1.3l-0.4,4l0,0.1l0.1,0c0.2,0,0.3,0,0.5,0l0.1,0l0-0.1c0-0.6,0.1-1.3,0.1-2.3c0-0.3,0.1-0.7,0.1-1.3l0.2-2.6
		l0-0.1l-0.1,0C105.1,103.3,104.9,103.3,104.7,103.3z"/>
	<path fill="#BCBEC0" d="M114.5,104.7c-0.2-0.2-0.5-0.4-0.8-0.5c-0.3-0.1-0.7-0.1-1-0.1c-0.5,0-1,0.1-1.5,0.3
		c-0.5,0.2-0.8,0.6-1.1,1c-0.3,0.5-0.4,1-0.5,1.5c0,0.3,0,0.6,0.1,0.9c0.1,0.3,0.2,0.6,0.3,0.8c0.2,0.2,0.3,0.4,0.6,0.5
		c0.2,0.1,0.5,0.2,0.7,0.3c0.3,0.1,0.5,0.1,0.8,0.1c0.4,0,0.8-0.1,1.1-0.2c0.4-0.1,0.7-0.3,1-0.6c0.3-0.3,0.5-0.6,0.7-1
		c0.2-0.4,0.3-0.8,0.3-1.2c0-0.4,0-0.8-0.1-1.1C115,105.2,114.8,104.9,114.5,104.7z M114.6,106.7c0,0.4-0.1,0.7-0.2,1
		c-0.1,0.3-0.3,0.6-0.5,0.8c-0.2,0.2-0.5,0.4-0.7,0.5c-0.5,0.2-1.1,0.2-1.7,0c-0.2-0.1-0.5-0.2-0.6-0.4c-0.2-0.2-0.3-0.4-0.4-0.7
		c-0.1-0.3-0.1-0.6-0.1-0.9c0-0.5,0.2-0.9,0.4-1.3c0.2-0.4,0.5-0.7,0.8-0.9c0.4-0.2,0.8-0.3,1.2-0.3c0.3,0,0.5,0,0.8,0.1
		c0.2,0.1,0.5,0.2,0.6,0.4c0.2,0.2,0.3,0.4,0.4,0.7C114.6,106,114.6,106.3,114.6,106.7z"/>
	<path fill="#BCBEC0" d="M122.6,102.4L122.6,102.4l-0.1,0.1c0,0.3,0,0.6-0.1,0.9c0,0.3,0,0.5-0.1,0.8c-0.4-0.1-0.8-0.1-1.1-0.1
		c-0.5,0-0.9,0.1-1.3,0.2c-0.4,0.1-0.8,0.3-1.2,0.6c-0.4,0.3-0.6,0.6-0.8,1c-0.2,0.4-0.3,0.8-0.4,1.3c0,0.3,0,0.6,0.1,0.9
		c0.1,0.3,0.2,0.6,0.4,0.8c0.2,0.2,0.5,0.4,0.8,0.5c0.3,0.1,0.6,0.2,1,0.2c0.2,0,0.5,0,0.7-0.1c0.2-0.1,0.4-0.1,0.6-0.2
		c0.2-0.1,0.3-0.2,0.5-0.3c0.1-0.1,0.2-0.2,0.3-0.4c0,0,0,0,0,0l-0.1,0.9h0.3c0,0,0.1,0,0.2,0l0.1,0l0.1-0.7c0-0.3,0.1-0.9,0.2-1.9
		l0.3-2.5c0.1-0.7,0.2-1.4,0.2-2l0-0.1l-0.1,0C122.9,102.4,122.8,102.4,122.6,102.4z M122.3,104.7l-0.2,1.6
		c-0.1,0.5-0.1,0.8-0.2,1.1c-0.1,0.2-0.2,0.4-0.3,0.6c-0.1,0.2-0.2,0.4-0.4,0.5c-0.1,0.1-0.3,0.3-0.4,0.3c-0.1,0.1-0.3,0.1-0.5,0.2
		c-0.2,0-0.4,0.1-0.6,0.1c-0.4,0-0.7-0.1-0.9-0.2c-0.3-0.1-0.5-0.4-0.6-0.7c-0.1-0.3-0.2-0.7-0.2-1c0-0.3,0.1-0.7,0.3-1.1
		c0.2-0.4,0.4-0.7,0.7-0.9c0.3-0.2,0.6-0.4,1-0.5c0.4-0.1,0.8-0.2,1.2-0.2c0.2,0,0.3,0,0.5,0C121.9,104.6,122.1,104.6,122.3,104.7z"
		/>
	<path fill="#BCBEC0" d="M130.7,104.2c0,0-0.1,0-0.2,0l-0.1,0l0,0.1c0,0.5-0.1,1.1-0.2,1.8c-0.1,0.7-0.1,1.1-0.2,1.4
		c-0.1,0.2-0.1,0.5-0.2,0.6c-0.1,0.2-0.2,0.4-0.4,0.5c-0.1,0.1-0.3,0.2-0.4,0.3c-0.2,0.1-0.3,0.2-0.6,0.2c-0.4,0.1-0.9,0.1-1.4,0
		c-0.2,0-0.4-0.1-0.6-0.2c-0.2-0.1-0.3-0.2-0.3-0.4c-0.1-0.2-0.1-0.4-0.1-0.6c0-0.2,0.1-0.8,0.2-1.7c0.1-0.9,0.2-1.5,0.3-1.8l0-0.1
		l-0.1,0c-0.1,0-0.2,0-0.2,0s-0.1,0-0.2,0l-0.1,0l0,0.1c0,0.5-0.1,1.2-0.2,2c-0.1,0.8-0.2,1.3-0.2,1.5c0,0.3,0,0.5,0.1,0.7
		c0.1,0.2,0.2,0.4,0.4,0.6c0.2,0.2,0.5,0.3,0.7,0.4c0.3,0.1,0.6,0.1,0.9,0.1c0.2,0,0.4,0,0.6,0c0.2,0,0.4-0.1,0.6-0.1
		c0.2-0.1,0.3-0.1,0.5-0.2c0.1-0.1,0.3-0.2,0.4-0.3c0.1-0.1,0.2-0.2,0.2-0.3c0,0,0,0,0,0l-0.1,0.8l0.1,0c0.1,0,0.3,0,0.4,0l0.1,0
		l0-0.1c0-0.2,0-0.5,0.1-0.8l0.1-0.8l0.5-3.6l-0.1,0C130.8,104.2,130.7,104.2,130.7,104.2z"/>
	<path fill="#BCBEC0" d="M134.2,102.4L134.2,102.4l-0.1,0.1c-0.2,1.8-0.4,4.1-0.8,6.9l0,0.1l0.1,0c0.2,0,0.3,0,0.4,0l0.1,0l0.5-4.5
		l0.3-2.6l-0.1,0C134.5,102.4,134.4,102.4,134.2,102.4z"/>
	<path fill="#BCBEC0" d="M141.2,104.5c-0.2-0.1-0.4-0.2-0.7-0.3c-0.5-0.1-1.2-0.1-1.8,0c-0.3,0-0.6,0.1-1,0.2l-0.1,0l0,0.1
		c0,0.1-0.1,0.3-0.1,0.4l-0.1,0.2l0.2-0.1c0.2-0.1,0.5-0.2,0.6-0.2c0.2,0,0.3-0.1,0.6-0.1c0.4-0.1,0.9-0.1,1.4,0
		c0.2,0,0.3,0.1,0.5,0.2c0.1,0.1,0.2,0.2,0.2,0.3c0,0.1,0.1,0.2,0,0.3c0,0.1-0.1,0.3-0.2,0.4c-0.1,0.1-0.3,0.3-0.5,0.3
		c-0.2,0.1-0.4,0.2-0.7,0.2c-0.5,0.1-0.8,0.2-0.9,0.2c-0.3,0.1-0.6,0.2-0.8,0.2c-0.2,0.1-0.4,0.2-0.6,0.3c-0.2,0.1-0.3,0.2-0.4,0.3
		c-0.1,0.1-0.2,0.3-0.3,0.4c-0.1,0.1-0.1,0.3-0.1,0.4c0,0.2,0,0.4,0.1,0.6c0.1,0.2,0.2,0.3,0.4,0.5c0.2,0.1,0.4,0.2,0.7,0.3
		c0.3,0,0.6,0.1,0.9,0.1c0.2,0,0.4,0,0.5,0c0.2,0,0.4-0.1,0.7-0.1l0.1,0l0-0.1c0-0.1,0.1-0.3,0.1-0.4l0.1-0.2l-0.2,0.1
		c-0.2,0.1-0.4,0.1-0.5,0.1c-0.1,0-0.2,0-0.4,0.1c-0.1,0-0.3,0-0.4,0c-0.3,0-0.5,0-0.7-0.1c-0.2-0.1-0.3-0.2-0.5-0.3
		c-0.1-0.1-0.2-0.3-0.1-0.5c0-0.1,0-0.3,0.1-0.4c0.1-0.1,0.1-0.2,0.2-0.3c0.1-0.1,0.3-0.2,0.5-0.3c0.2-0.1,0.4-0.2,0.7-0.3
		c0.1,0,0.4-0.1,0.7-0.2c0.3-0.1,0.5-0.1,0.6-0.2c0.1,0,0.2-0.1,0.3-0.1c0.1,0,0.2-0.1,0.3-0.1c0.1,0,0.2-0.1,0.2-0.1
		c0,0,0.1,0,0.1-0.1c0,0.3-0.1,0.5-0.1,0.8c0,0.4-0.1,0.7-0.1,1c0,0.3-0.1,0.7-0.2,1.3l0,0.1l0.1,0c0.2,0,0.3,0,0.5,0l0.1,0l0-0.5
		c0-0.2,0-0.5,0.1-1c0.1-0.4,0.1-0.8,0.1-1.1c0-0.3,0.1-0.6,0.1-0.8c0-0.3,0.1-0.5,0.1-0.6c0-0.2,0-0.3,0-0.5
		C141.5,104.7,141.4,104.6,141.2,104.5z"/>
	<path fill="#BCBEC0" d="M147.4,104.2L147.4,104.2c-0.5-0.1-0.8-0.1-1.2,0c-0.2,0-0.4,0.1-0.5,0.2c-0.2,0.1-0.3,0.2-0.4,0.3
		c-0.1,0.1-0.1,0.1-0.2,0.2l0.1-0.7l-0.1,0c-0.1,0-0.2,0-0.4,0l-0.1,0l0,0.5c0,0.5-0.1,1.2-0.2,2.1c-0.1,1-0.2,1.8-0.3,2.5l0,0.1
		l0.1,0c0.2,0,0.2,0,0.4,0l0.1,0l0-0.1c0-0.4,0.1-0.9,0.1-1.7c0.1-0.6,0.1-1,0.2-1.5c0-0.3,0.1-0.5,0.2-0.7c0.1-0.2,0.2-0.3,0.3-0.4
		c0.1-0.1,0.2-0.2,0.4-0.3c0.1-0.1,0.2-0.1,0.4-0.2c0.3-0.1,0.6-0.1,1,0l0.1,0l0-0.1C147.4,104.5,147.4,104.4,147.4,104.2
		L147.4,104.2z"/>
	<path fill="#BCBEC0" d="M162.2,103c-0.1-0.1-0.3-0.3-0.4-0.3c-0.2-0.1-0.3-0.1-0.5-0.2c-0.2,0-0.5,0-0.9,0l-1.2,0l-1.2,0l0,0.5
		c0,0.2,0,0.3,0,0.5l-0.5,4.3l-0.3,1.8l2.3,0c0.4,0,0.7,0,1-0.1c0.3-0.1,0.6-0.2,0.9-0.4c0.3-0.2,0.5-0.4,0.7-0.7
		c0.2-0.3,0.3-0.6,0.3-0.9c0-0.2,0-0.3,0-0.5c0-0.2-0.1-0.3-0.1-0.4c-0.1-0.1-0.1-0.2-0.2-0.3c-0.1-0.1-0.2-0.2-0.3-0.3
		c-0.1-0.1-0.2-0.1-0.3-0.2c-0.1,0-0.1,0-0.2-0.1c0.1,0,0.2-0.1,0.2-0.1c0.1-0.1,0.3-0.2,0.4-0.3c0.1-0.1,0.3-0.2,0.4-0.4
		c0.1-0.1,0.2-0.3,0.2-0.5c0.1-0.2,0.1-0.3,0.1-0.5c0-0.2,0-0.4-0.1-0.6C162.4,103.3,162.3,103.1,162.2,103z M160.6,106.1
		c0.2,0,0.4,0.1,0.6,0.2c0.2,0.1,0.3,0.3,0.4,0.5c0.1,0.2,0.1,0.4,0.1,0.6c0,0.2-0.1,0.5-0.2,0.7c-0.1,0.2-0.3,0.4-0.5,0.5
		c-0.2,0.1-0.4,0.2-0.6,0.3c-0.2,0.1-0.6,0.1-1.1,0.1h-1.5l0.3-2.9h1.7C160.2,106.1,160.4,106.1,160.6,106.1z M160.3,105.5
		c-0.2,0-0.6,0-1.1,0h-1l0.3-2.7h1.8c0.4,0,0.6,0,0.8,0.1c0.2,0,0.3,0.1,0.4,0.2c0.1,0.1,0.2,0.2,0.3,0.4c0.1,0.1,0.1,0.3,0.1,0.5
		c0,0.2-0.1,0.4-0.1,0.6c-0.1,0.2-0.2,0.3-0.3,0.5c-0.1,0.1-0.3,0.2-0.4,0.3C160.8,105.4,160.5,105.5,160.3,105.5z"/>
	<path fill="#BCBEC0" d="M170,104.2c0,0-0.1,0-0.2,0l-0.1,0l0,0.1c0,0.5-0.1,1.1-0.2,1.8c-0.1,0.7-0.1,1.1-0.2,1.4
		c-0.1,0.2-0.1,0.5-0.2,0.6c-0.1,0.2-0.2,0.4-0.4,0.5c-0.1,0.1-0.3,0.2-0.4,0.3c-0.2,0.1-0.3,0.2-0.6,0.2c-0.4,0.1-0.9,0.1-1.4,0
		c-0.2,0-0.4-0.1-0.6-0.2c-0.2-0.1-0.3-0.2-0.3-0.4c-0.1-0.2-0.1-0.4-0.1-0.6c0-0.2,0.1-0.8,0.2-1.7c0.1-0.9,0.2-1.5,0.3-1.8l0-0.1
		l-0.1,0c-0.1,0-0.2,0-0.2,0c0,0-0.1,0-0.2,0l-0.1,0l0,0.1c0,0.5-0.1,1.2-0.2,2c-0.1,0.8-0.2,1.3-0.2,1.5c0,0.3,0,0.5,0.1,0.7
		c0.1,0.2,0.2,0.4,0.4,0.6c0.2,0.2,0.5,0.3,0.7,0.4c0.3,0.1,0.6,0.1,0.9,0.1c0.2,0,0.4,0,0.6,0c0.2,0,0.4-0.1,0.6-0.1
		c0.2-0.1,0.3-0.1,0.5-0.2c0.1-0.1,0.3-0.2,0.4-0.3c0.1-0.1,0.2-0.2,0.2-0.3c0,0,0,0,0,0l-0.1,0.8l0.1,0c0.1,0,0.3,0,0.4,0l0.1,0
		l0-0.1c0-0.2,0-0.5,0.1-0.8l0.1-0.8l0.5-3.6l-0.1,0C170.2,104.2,170.1,104.2,170,104.2z"/>
	<path fill="#BCBEC0" d="M173.4,104.2L173.4,104.2l-0.1,0.1c0,0.4-0.1,1.2-0.3,2.5c-0.2,1.3-0.3,2.2-0.3,2.6l0,0.1l0.1,0
		c0.2,0,0.2,0,0.4,0l0.1,0l0-0.1c0-0.6,0.1-1.4,0.3-2.5c0.1-1.1,0.3-2,0.4-2.6l0-0.1l-0.1,0C173.7,104.2,173.6,104.2,173.4,104.2z"
		/>
	<path fill="#BCBEC0" d="M173.6,102.4L173.6,102.4l-0.2,0.7l0.1,0c0.2,0,0.4,0,0.5,0l0.1,0l0.1-0.7l-0.1,0
		C173.9,102.4,173.7,102.4,173.6,102.4z"/>
	<path fill="#BCBEC0" d="M177.2,102.4L177.2,102.4l-0.1,0.1c-0.2,1.8-0.4,4.1-0.8,6.9l0,0.1l0.1,0c0.2,0,0.3,0,0.4,0l0.1,0l0.5-4.5
		l0.3-2.6l-0.1,0C177.5,102.4,177.4,102.4,177.2,102.4z"/>
	<path fill="#BCBEC0" d="M185.1,102.4L185.1,102.4l-0.1,0.1c0,0.3,0,0.6-0.1,0.9c0,0.3,0,0.5-0.1,0.8c-0.4-0.1-0.8-0.1-1.1-0.1
		c-0.5,0-0.9,0.1-1.3,0.2c-0.4,0.1-0.8,0.3-1.2,0.6c-0.4,0.3-0.6,0.6-0.8,1c-0.2,0.4-0.3,0.8-0.4,1.3c0,0.3,0,0.6,0.1,0.9
		c0.1,0.3,0.2,0.6,0.4,0.8c0.2,0.2,0.5,0.4,0.8,0.5c0.3,0.1,0.6,0.2,1,0.2c0.2,0,0.5,0,0.7-0.1c0.2-0.1,0.4-0.1,0.6-0.2
		c0.2-0.1,0.3-0.2,0.5-0.3c0.1-0.1,0.2-0.2,0.3-0.4c0,0,0,0,0,0l-0.1,0.9h0.3c0,0,0.1,0,0.2,0l0.1,0l0.1-0.7c0-0.3,0.1-0.9,0.2-1.9
		l0.3-2.5c0.1-0.7,0.2-1.4,0.2-2l0-0.1l-0.1,0C185.3,102.4,185.2,102.4,185.1,102.4z M184.8,104.7l-0.2,1.6
		c-0.1,0.5-0.1,0.8-0.2,1.1c-0.1,0.2-0.2,0.4-0.3,0.6c-0.1,0.2-0.2,0.4-0.4,0.5c-0.1,0.1-0.3,0.3-0.4,0.3c-0.1,0.1-0.3,0.1-0.5,0.2
		c-0.2,0-0.4,0.1-0.6,0.1c-0.4,0-0.7-0.1-0.9-0.2c-0.3-0.1-0.5-0.4-0.6-0.7c-0.1-0.3-0.2-0.7-0.2-1c0-0.3,0.1-0.7,0.3-1.1
		c0.2-0.4,0.4-0.7,0.7-0.9c0.3-0.2,0.6-0.4,1-0.5c0.4-0.1,0.8-0.2,1.2-0.2c0.2,0,0.3,0,0.5,0C184.4,104.6,184.5,104.6,184.8,104.7z"
		/>
	<path fill="#BCBEC0" d="M188.7,102.4L188.7,102.4l-0.2,0.7l0.1,0c0.2,0,0.4,0,0.5,0l0.1,0l0.1-0.7l-0.1,0
		C189.1,102.4,188.9,102.4,188.7,102.4z"/>
	<path fill="#BCBEC0" d="M188.6,104.2L188.6,104.2l-0.1,0.1c0,0.4-0.1,1.2-0.3,2.5c-0.2,1.3-0.3,2.2-0.3,2.6l0,0.1l0.1,0
		c0.2,0,0.2,0,0.4,0l0.1,0l0-0.1c0-0.6,0.1-1.4,0.3-2.5c0.1-1.1,0.3-2,0.4-2.6l0-0.1l-0.1,0C188.8,104.2,188.8,104.2,188.6,104.2z"
		/>
	<path fill="#BCBEC0" d="M196.4,104.5c-0.2-0.2-0.4-0.3-0.7-0.4c-0.5-0.1-1-0.1-1.5-0.1c-0.2,0-0.4,0.1-0.6,0.1
		c-0.2,0.1-0.4,0.1-0.5,0.2c-0.1,0.1-0.3,0.2-0.4,0.3c-0.1,0.1-0.2,0.2-0.2,0.3l0.1-0.7l0-0.1l-0.1,0c-0.1,0-0.2,0-0.2,0
		c0,0-0.1,0-0.2,0l-0.1,0l0,0.1c0,0.1,0,0.3-0.1,0.6l-0.2,1.5l-0.4,3.2l0.1,0c0.2,0,0.2,0,0.4,0l0.1,0l0-0.1c0-0.4,0.1-1,0.2-1.6
		c0.1-0.6,0.1-1.1,0.2-1.4c0.1-0.3,0.2-0.6,0.3-0.7c0.1-0.2,0.3-0.4,0.5-0.6c0.2-0.2,0.4-0.3,0.7-0.4c0.3-0.1,0.6-0.1,0.9-0.1
		c0.2,0,0.5,0,0.7,0.1c0.2,0,0.4,0.1,0.5,0.2c0.1,0.1,0.2,0.2,0.3,0.4c0.1,0.2,0.1,0.4,0.1,0.6c0,0.2-0.1,0.6-0.1,1l-0.2,1.3
		c-0.1,0.4-0.1,0.8-0.2,1.2l0,0.1l0.1,0c0.1,0,0.3,0,0.4,0l0.1,0l0.1-0.9l0.3-2.3c0-0.2,0-0.4,0.1-0.5c0-0.2,0-0.5-0.1-0.7
		C196.8,104.9,196.6,104.7,196.4,104.5z"/>
	<path fill="#BCBEC0" d="M203.2,104.1c-0.5,0-1,0.1-1.4,0.2c-0.4,0.1-0.8,0.3-1.2,0.6c-0.4,0.3-0.6,0.6-0.8,1.1
		c-0.2,0.4-0.3,0.9-0.4,1.3c0,0.3,0,0.7,0.1,1c0.1,0.3,0.3,0.6,0.5,0.8c0.2,0.2,0.5,0.3,0.8,0.4c0.5,0.1,1.1,0.2,1.6,0.1
		c0.2,0,0.4-0.1,0.6-0.2c0.2-0.1,0.3-0.1,0.5-0.2c0.1-0.1,0.3-0.2,0.4-0.3c0.1-0.1,0.2-0.2,0.2-0.3c0,0.4-0.1,0.7-0.1,1
		c0,0.3-0.1,0.5-0.1,0.7c-0.1,0.2-0.1,0.4-0.3,0.5c-0.1,0.1-0.2,0.2-0.4,0.3c-0.2,0.1-0.4,0.2-0.6,0.3c-0.5,0.1-1,0.1-1.7,0
		c-0.3,0-0.7-0.1-1.2-0.3l-0.1,0l0,0.1c0,0.1,0,0.3,0,0.4l0,0.1l0.1,0c0.4,0.1,0.7,0.1,1,0.2c0.3,0,0.6,0,0.9,0c0.4,0,0.8,0,1.1-0.1
		c0.3-0.1,0.6-0.2,0.8-0.3c0.2-0.1,0.4-0.3,0.5-0.4c0.1-0.2,0.3-0.4,0.3-0.6c0.1-0.2,0.1-0.4,0.2-0.7l0.2-2.1l0.3-2.3
		c0-0.2,0-0.3,0.1-0.4l0.1-0.7l-0.1,0C204.3,104.2,203.7,104.1,203.2,104.1z M204.4,104.7l-0.2,1.6c-0.1,0.5-0.1,0.8-0.2,1.1
		c-0.1,0.2-0.2,0.4-0.3,0.6c-0.1,0.2-0.3,0.4-0.4,0.5c-0.1,0.1-0.3,0.3-0.5,0.3c-0.2,0.1-0.3,0.1-0.5,0.2c-0.2,0.1-0.5,0.1-0.7,0.1
		c-0.4,0-0.7-0.1-1-0.2c-0.3-0.1-0.5-0.4-0.6-0.7c-0.1-0.3-0.2-0.6-0.1-1c0-0.4,0.1-0.8,0.3-1.2c0.2-0.4,0.4-0.7,0.7-0.9
		c0.3-0.2,0.6-0.4,1-0.5c0.4-0.1,0.7-0.1,1.1-0.1c0.2,0,0.3,0,0.5,0C203.9,104.6,204.1,104.6,204.4,104.7z"/>
	<path fill="#BCBEC0" d="M218.5,102.5L218.5,102.5L218.5,102.5c-0.6-0.2-1-0.2-1.4-0.2c-0.5,0-0.9,0.1-1.3,0.2
		c-0.3,0.1-0.6,0.3-0.8,0.6c-0.2,0.2-0.3,0.5-0.3,0.8c0,0.1,0,0.2,0,0.4c0,0.1,0,0.2,0.1,0.3c0,0.1,0.1,0.2,0.2,0.3
		c0.1,0.1,0.2,0.2,0.3,0.4c0.1,0.1,0.3,0.3,0.4,0.4l0.4,0.3c0.5,0.4,0.8,0.7,1,0.9c0.2,0.2,0.3,0.3,0.4,0.4c0.1,0.1,0.1,0.2,0.2,0.3
		c0,0.1,0,0.2,0,0.3c0,0.2-0.1,0.4-0.2,0.6c-0.1,0.2-0.3,0.3-0.6,0.4c-0.7,0.3-1.6,0.2-2.7-0.3l-0.1-0.1l0,0.2c0,0.2,0,0.3,0,0.4
		l0,0.1l0.1,0c0.4,0.1,0.8,0.2,1,0.3c0.3,0,0.5,0.1,0.8,0.1c0.4,0,0.8-0.1,1.2-0.2c0.4-0.1,0.6-0.3,0.8-0.6c0.2-0.3,0.3-0.5,0.3-0.9
		c0-0.1,0-0.3,0-0.4c0-0.1-0.1-0.3-0.1-0.4c-0.1-0.1-0.2-0.3-0.3-0.4c-0.1-0.1-0.2-0.2-0.4-0.3c-0.1-0.1-0.3-0.3-0.6-0.5
		c-0.3-0.3-0.5-0.5-0.7-0.6c-0.2-0.2-0.3-0.3-0.5-0.4c-0.1-0.1-0.2-0.2-0.3-0.3c-0.1-0.1-0.1-0.2-0.1-0.3c0-0.1,0-0.2,0-0.3
		c0-0.2,0.1-0.4,0.2-0.5c0.1-0.2,0.3-0.3,0.5-0.4c0.4-0.2,0.9-0.2,1.5-0.1c0.2,0,0.5,0.1,0.8,0.2l0.1,0l0-0.1
		C218.5,102.8,218.4,102.6,218.5,102.5z"/>
	<path fill="#BCBEC0" d="M225.7,104.7c-0.2-0.2-0.5-0.4-0.8-0.5c-0.3-0.1-0.7-0.1-1-0.1c-0.5,0-1,0.1-1.5,0.3
		c-0.5,0.2-0.8,0.6-1.1,1c-0.3,0.5-0.4,1-0.5,1.5c0,0.3,0,0.6,0.1,0.9c0.1,0.3,0.2,0.6,0.3,0.8c0.2,0.2,0.3,0.4,0.6,0.5
		c0.2,0.1,0.5,0.2,0.7,0.3c0.3,0.1,0.5,0.1,0.8,0.1c0.4,0,0.8-0.1,1.1-0.2c0.4-0.1,0.7-0.3,1-0.6c0.3-0.3,0.5-0.6,0.7-1
		c0.2-0.4,0.3-0.8,0.3-1.2c0-0.4,0-0.8-0.1-1.1C226.1,105.2,225.9,104.9,225.7,104.7z M225.7,106.7c0,0.4-0.1,0.7-0.2,1
		c-0.1,0.3-0.3,0.6-0.5,0.8c-0.2,0.2-0.5,0.4-0.7,0.5c-0.5,0.2-1.1,0.2-1.7,0c-0.2-0.1-0.5-0.2-0.6-0.4c-0.2-0.2-0.3-0.4-0.4-0.7
		c-0.1-0.3-0.1-0.6-0.1-0.9c0-0.5,0.2-0.9,0.4-1.3c0.2-0.4,0.5-0.7,0.8-0.9c0.4-0.2,0.8-0.3,1.2-0.3c0.3,0,0.5,0,0.8,0.1
		c0.2,0.1,0.5,0.2,0.6,0.4c0.2,0.2,0.3,0.4,0.4,0.7C225.7,106,225.7,106.3,225.7,106.7z"/>
	<path fill="#BCBEC0" d="M229.6,102.4L229.6,102.4l-0.1,0.1c-0.2,1.8-0.4,4.1-0.8,6.9l0,0.1l0.1,0c0.2,0,0.3,0,0.4,0l0.1,0l0.5-4.5
		l0.3-2.6l-0.1,0C229.9,102.4,229.8,102.4,229.6,102.4z"/>
	<path fill="#BCBEC0" d="M237.6,104.2c0,0-0.1,0-0.2,0l-0.1,0l0,0.1c0,0.5-0.1,1.1-0.2,1.8c-0.1,0.7-0.1,1.1-0.2,1.4
		c-0.1,0.2-0.1,0.5-0.2,0.6c-0.1,0.2-0.2,0.4-0.4,0.5c-0.1,0.1-0.3,0.2-0.4,0.3c-0.2,0.1-0.3,0.2-0.6,0.2c-0.4,0.1-0.9,0.1-1.4,0
		c-0.2,0-0.4-0.1-0.6-0.2c-0.2-0.1-0.3-0.2-0.3-0.4c-0.1-0.2-0.1-0.4-0.1-0.6c0-0.2,0.1-0.8,0.2-1.7c0.1-0.9,0.2-1.5,0.3-1.8l0-0.1
		l-0.1,0c-0.1,0-0.2,0-0.2,0c0,0-0.1,0-0.2,0l-0.1,0l0,0.1c0,0.5-0.1,1.2-0.2,2c-0.1,0.8-0.2,1.3-0.2,1.5c0,0.3,0,0.5,0.1,0.7
		c0.1,0.2,0.2,0.4,0.4,0.6c0.2,0.2,0.5,0.3,0.7,0.4c0.3,0.1,0.6,0.1,0.9,0.1c0.2,0,0.4,0,0.6,0c0.2,0,0.4-0.1,0.6-0.1
		c0.2-0.1,0.3-0.1,0.5-0.2c0.1-0.1,0.3-0.2,0.4-0.3c0.1-0.1,0.2-0.2,0.2-0.3c0,0,0,0,0,0l-0.1,0.8l0.1,0c0.1,0,0.3,0,0.4,0l0.1,0
		l0-0.1c0-0.2,0-0.5,0.1-0.8l0.1-0.8l0.5-3.6l-0.1,0C237.7,104.2,237.7,104.2,237.6,104.2z"/>
	<path fill="#BCBEC0" d="M241.7,103.3l0-0.1l-0.1,0c-0.1,0-0.2,0-0.3,0.1l-0.1,0l0,0.1c0,0.4-0.1,0.7-0.1,0.9h-0.7l0,0.1
		c0,0.1,0,0.2,0,0.3l0,0.1h0.7l-0.4,3.4c0,0.1,0,0.2,0,0.2c0,0.1,0,0.1,0,0.1c0,0.2,0,0.3,0,0.4c0,0.1,0.1,0.3,0.2,0.4
		c0.1,0.1,0.3,0.2,0.4,0.3c0.2,0,0.4,0.1,0.6,0.1c0.3,0,0.5,0,0.8-0.1l0.1,0l0-0.1c0-0.1,0.1-0.2,0.1-0.3l0.1-0.2l-0.2,0
		c-0.3,0.1-0.5,0.1-0.6,0.1c-0.2,0-0.5,0-0.7-0.1c-0.1,0-0.2-0.1-0.2-0.2c-0.1-0.1-0.1-0.3-0.1-0.6l0.5-3.6h1.6l0-0.1
		c0-0.1,0-0.2,0-0.3l0-0.1h-1.6C241.6,104,241.6,103.7,241.7,103.3z"/>
	<path fill="#BCBEC0" d="M245.8,102.4L245.8,102.4l-0.2,0.7l0.1,0c0.2,0,0.4,0,0.5,0l0.1,0l0.1-0.7l-0.1,0
		C246.1,102.4,245.9,102.4,245.8,102.4z"/>
	<path fill="#BCBEC0" d="M245.6,104.2L245.6,104.2l-0.1,0.1c0,0.4-0.1,1.2-0.3,2.5c-0.2,1.3-0.3,2.2-0.3,2.6l0,0.1l0.1,0
		c0.2,0,0.2,0,0.4,0l0.1,0l0-0.1c0-0.6,0.1-1.4,0.3-2.5c0.1-1.1,0.3-2,0.4-2.6l0-0.1l-0.1,0C245.9,104.2,245.8,104.2,245.6,104.2z"
		/>
	<path fill="#BCBEC0" d="M253.4,104.7c-0.2-0.2-0.5-0.4-0.8-0.5c-0.3-0.1-0.7-0.1-1-0.1c-0.5,0-1,0.1-1.5,0.3
		c-0.5,0.2-0.8,0.6-1.1,1c-0.3,0.5-0.4,1-0.5,1.5c0,0.3,0,0.6,0.1,0.9c0.1,0.3,0.2,0.6,0.3,0.8c0.2,0.2,0.3,0.4,0.6,0.5
		c0.2,0.1,0.5,0.2,0.7,0.3c0.3,0.1,0.5,0.1,0.8,0.1c0.4,0,0.8-0.1,1.1-0.2c0.4-0.1,0.7-0.3,1-0.6c0.3-0.3,0.5-0.6,0.7-1
		c0.2-0.4,0.3-0.8,0.3-1.2c0-0.4,0-0.8-0.1-1.1C253.8,105.2,253.6,104.9,253.4,104.7z M253.4,106.7c0,0.4-0.1,0.7-0.2,1
		c-0.1,0.3-0.3,0.6-0.5,0.8c-0.2,0.2-0.5,0.4-0.7,0.5c-0.5,0.2-1.1,0.2-1.7,0c-0.2-0.1-0.5-0.2-0.6-0.4c-0.2-0.2-0.3-0.4-0.4-0.7
		c-0.1-0.3-0.1-0.6-0.1-0.9c0-0.5,0.2-0.9,0.4-1.3c0.2-0.4,0.5-0.7,0.8-0.9c0.4-0.2,0.8-0.3,1.2-0.3c0.3,0,0.5,0,0.8,0.1
		c0.2,0.1,0.5,0.2,0.6,0.4c0.2,0.2,0.3,0.4,0.4,0.7C253.4,106,253.4,106.3,253.4,106.7z"/>
	<path fill="#BCBEC0" d="M261.3,104.5c-0.2-0.2-0.4-0.3-0.7-0.4c-0.5-0.1-1-0.1-1.5-0.1c-0.2,0-0.4,0.1-0.6,0.1
		c-0.2,0.1-0.4,0.1-0.5,0.2c-0.1,0.1-0.3,0.2-0.4,0.3c-0.1,0.1-0.2,0.2-0.2,0.3l0.1-0.7l0-0.1l-0.1,0c-0.1,0-0.2,0-0.2,0
		c0,0-0.1,0-0.2,0l-0.1,0l0,0.1c0,0.1,0,0.3-0.1,0.6l-0.2,1.5l-0.4,3.2l0.1,0c0.2,0,0.2,0,0.4,0l0.1,0l0-0.1c0-0.4,0.1-1,0.2-1.6
		c0.1-0.6,0.1-1.1,0.2-1.4c0.1-0.3,0.2-0.6,0.3-0.7c0.1-0.2,0.3-0.4,0.5-0.6c0.2-0.2,0.4-0.3,0.7-0.4c0.3-0.1,0.6-0.1,0.9-0.1
		c0.2,0,0.5,0,0.7,0.1c0.2,0,0.4,0.1,0.5,0.2c0.1,0.1,0.2,0.2,0.3,0.4c0.1,0.2,0.1,0.4,0.1,0.6c0,0.2-0.1,0.6-0.1,1l-0.2,1.3
		c-0.1,0.4-0.1,0.8-0.2,1.2l0,0.1l0.1,0c0.1,0,0.3,0,0.4,0l0.1,0l0.1-0.9l0.3-2.3c0-0.2,0-0.4,0.1-0.5c0-0.2,0-0.5-0.1-0.7
		C261.7,104.9,261.5,104.7,261.3,104.5z"/>
	<path fill="#BCBEC0" d="M265.8,104.7c0.3-0.1,0.8-0.1,1.2,0c0.2,0,0.4,0.1,0.6,0.2l0.1,0.1l0-0.1c0-0.1,0-0.3,0-0.4l0-0.1l-0.1,0
		c-0.9-0.2-1.6-0.2-2.1,0c-0.3,0.1-0.5,0.3-0.6,0.5c-0.2,0.2-0.2,0.4-0.3,0.6c0,0.1,0,0.3,0,0.4c0,0.1,0.1,0.2,0.2,0.4
		c0.1,0.1,0.2,0.3,0.4,0.4c0.1,0.1,0.3,0.3,0.5,0.5c0.2,0.2,0.4,0.3,0.5,0.4c0.1,0.1,0.2,0.2,0.3,0.2c0.1,0.1,0.1,0.1,0.2,0.2
		c0,0.1,0.1,0.1,0.1,0.2c0,0.1,0,0.1,0.1,0.2c0,0.1,0,0.1,0,0.2c0,0.1-0.1,0.3-0.2,0.4c-0.1,0.1-0.2,0.2-0.4,0.3
		c-0.3,0.1-0.8,0.1-1.4,0c-0.2,0-0.5-0.1-0.8-0.2l-0.2-0.1l0,0.2c0,0.1,0,0.3,0,0.4l0,0.1l0.1,0c0.2,0.1,0.3,0.1,0.5,0.1
		c0.1,0,0.3,0,0.5,0.1c0.2,0,0.4,0,0.5,0c0.4,0,0.7-0.1,1-0.2c0.3-0.1,0.5-0.3,0.7-0.5c0.2-0.2,0.2-0.4,0.3-0.6c0-0.1,0-0.2,0-0.3
		c0-0.1,0-0.2-0.1-0.3c0-0.1-0.1-0.2-0.2-0.3c-0.1-0.1-0.1-0.2-0.2-0.3c-0.1-0.1-0.2-0.2-0.3-0.3c-0.1-0.1-0.3-0.2-0.5-0.4
		c-0.2-0.2-0.4-0.3-0.5-0.4c-0.1-0.1-0.2-0.2-0.3-0.3c-0.1-0.1-0.1-0.1-0.2-0.2c0-0.1-0.1-0.1-0.1-0.2c0-0.1,0-0.1,0-0.2
		c0-0.1,0.1-0.2,0.2-0.4C265.4,104.8,265.6,104.7,265.8,104.7z"/>
	<path d="M34.7,39.8"/>
	
		<radialGradient id="SVGID_14_" cx="7.4868" cy="77.4111" r="25.6806" gradientTransform="matrix(0.9996 2.710000e-002 -2.710000e-002 0.9996 37.5975 -30.5332)" gradientUnits="userSpaceOnUse">
		<stop  offset="0" style="stop-color:#FFDE17"/>
		<stop  offset="1" style="stop-color:#F15A29"/>
	</radialGradient>
	<path fill="url(#SVGID_14_)" d="M26.8,49.3c0.8,0.8,1.7,1.5,2.6,2c2.6-3.2,5.4-6.4,8.1-8.9c2.7-2.4,6.9-5.9,11.9-9.1
		c-0.5-0.9-1-1.6-1.1-1.8c1.4-3.1,4.5-8.1,14.8-21.4c-9.1,11.8-13.8,17.1-16.7,19.4c-1.1-1-2.3-1.8-3.6-2.4c0.6-2.5,1.5-6.1,3-11.5
		c-1.5,5.1-2.6,8.7-3.6,11.3c-0.9-0.4-1.9-0.7-2.9-0.8c-1-4.1-2-11.4-2.6-26.1c0.6,14.3,0.7,21.7,0.2,25.8c-0.5,0-1,0-1.6,0.1
		c-0.8,0.1-1.5,0.2-2.2,0.4C31,22.1,28.2,16.2,25,9c3.2,7.1,5.6,13.1,7.2,17.6c-1.3,0.4-2.5,1-3.6,1.8C25,25.5,19.4,20.1,9.9,9.5
		C19.2,19.8,24.3,25.9,27,29.7c-0.9,0.9-1.8,1.9-2.4,3c-2.7-1.2-6.3-2.9-11-5.4c4.7,2.4,8.2,4.3,10.8,5.8c-0.4,0.8-0.8,1.5-1,2.4
		c-3.7-0.5-9.9-1.9-23.3-5.7c12.6,3.7,19.2,6,22.8,7.7c-0.2,1.1-0.2,2.3-0.1,3.5c0.1,0.6,0.2,1.2,0.3,1.7c-4.6,1.2-10.7,2.6-18,4
		c7.3-1.4,13.6-2.4,18.2-3.1c0.4,1.3,1,2.6,1.8,3.7c-3.4,2.5-9.9,6.1-22.9,13.3C15.8,53,22.6,50.5,26.8,49.3z"/>
	<linearGradient id="SVGID_15_" gradientUnits="userSpaceOnUse" x1="26.8373" y1="66.6693" x2="-8.6216" y2="113.5842">
		<stop  offset="0" style="stop-color:#414042"/>
		<stop  offset="1" style="stop-color:#BCBEC0"/>
	</linearGradient>
	<path fill="url(#SVGID_15_)" d="M15.5,77.4c-0.2-10.2-0.2-18.9-0.2-18.9L6,69.6l1,32.6c1.5,1.1,4,2.6,9.7,2.8
		C14.4,99.4,12.2,89.7,15.5,77.4z"/>
	<path fill="#FFFFFF" d="M65.6,68c-12.1,0.7-17.8,5.9-17.6,17.6c2.7-4.4,7-9.1,13.6-13.3c-6.3,4.5-12.6,12.4-14.6,17.1
		c0-1.4,0.1-2.5,0-3.3c-0.7-5.7-1.3-9.4-1.1-9.8c0.3-0.9,0.3-1.6,0.8-2.2c1.6-3.1,2.9-5.7,3.9-8.4c0.5-1.2,2-4.5,3.6-5.8
		c-5.3-0.1-8.1,2.9-8.3,9.1c0,1.4,0.5,3.4,0.3,4.6c-0.2,0.8-0.4,1.4-0.9,2c0-0.1-0.1-0.3-0.1-0.4c-0.3-1.6-1.3-2.9-1.4-3.7
		c-2.5-6.6,0.3-9.1-4.4-14.2c1.5,4.2,0.7,9.4,3.7,14.3c1.1,1.9,1.7,3.7,1.8,5.4c0.4,2.5,0.5,5.8,1.1,9.3c-0.4-0.3-0.8-0.8-1.1-1.3
		c-2-3.2-4.1-6.2-6.4-8.9c1.5,0.9,3.4,2.5,6,6.5l-0.7-3.4c-1.8-7.3-5.5-10.8-16.2-11.6c3.5,2.9,5.3,6.6,9.1,13.1
		c2.4,3.3,5.6,3.1,7.9,4.9c0.4,0.4,1.1,1.4,1.3,1.9c0.1,0.7,0.2,1.5,0.2,2.3c-0.1,0-0.1,1.8-0.2,2.7c-0.1,0.5-0.1,1-0.2,1.6
		c0,0,0,0-0.1,0c0,0.3,0,0.5-0.1,0.8c0,0.3-0.1,0.7-0.1,1.1c-0.2,1.4-0.3,2.4-0.4,3.2c-0.1,0.7-0.2,1.2-0.3,1.5
		c0.3,0.3,0.5,0.5,0.8,0.7c0.3,0.2,0.6,0.3,0.9,0.4c-0.1-0.7-0.1-1.4,0-2.2c0-0.8,0.5-3.2,0.4-3.2c0.1-0.7,0.2-1.3,0.2-1.8
		c0.4-3.7,1.5-6.1,2.2-6c6.6,1.2,11.3-3.3,15.5-13.2c1.7-4.1,3.4-6.6,5-7.6L65.6,68z"/>
	<radialGradient id="SVGID_16_" cx="47.573" cy="99.9001" r="31.576" gradientUnits="userSpaceOnUse">
		<stop  offset="0" style="stop-color:#00AEEF"/>
		<stop  offset="0.1215" style="stop-color:#009DDE"/>
		<stop  offset="0.3737" style="stop-color:#007CBC"/>
		<stop  offset="0.7311" style="stop-color:#004D8F"/>
		<stop  offset="1" style="stop-color:#172671"/>
	</radialGradient>
	<path fill="url(#SVGID_16_)" d="M91.1,102.3c-31.3-36-60.5,19.2-87,0C28.9,128.3,60.5,77.4,91.1,102.3z"/>
	<path fill="none" stroke="#000000" stroke-miterlimit="3.8637" d="M84.3,62.1"/>
	<linearGradient id="SVGID_17_" gradientUnits="userSpaceOnUse" x1="81.4524" y1="78.532" x2="64.5412" y2="20.7067">
		<stop  offset="0" style="stop-color:#414042"/>
		<stop  offset="1" style="stop-color:#BCBEC0"/>
	</linearGradient>
	<path fill="url(#SVGID_17_)" d="M73,63.2l0-9.8V29.6l-8.2,8.2C65.1,43.8,67,52.2,73,63.2z"/>
	<linearGradient id="SVGID_18_" gradientUnits="userSpaceOnUse" x1="80.0019" y1="40.3967" x2="80.0019" y2="92.6074">
		<stop  offset="0" style="stop-color:#414042"/>
		<stop  offset="1" style="stop-color:#BCBEC0"/>
	</linearGradient>
	<path fill="url(#SVGID_18_)" d="M76.2,68.6c0,0,6.3,7.9,8.3,18.2l-0.2-39.5l-8.8-13v23.7l0,9.4C75.8,67.8,76,68.2,76.2,68.6z"/>
	<linearGradient id="SVGID_19_" gradientUnits="userSpaceOnUse" x1="28.1488" y1="92.2847" x2="9.601" y2="27.3673">
		<stop  offset="0" style="stop-color:#414042"/>
		<stop  offset="1" style="stop-color:#BCBEC0"/>
	</linearGradient>
	<path fill="url(#SVGID_19_)" d="M23.9,59.4l-6.5-3.8c0,0,0,7.4-0.2,16.5C18.8,68.1,21,63.9,23.9,59.4z"/>
	<radialGradient id="SVGID_20_" cx="49.4217" cy="108.1606" r="26.4375" gradientUnits="userSpaceOnUse">
		<stop  offset="0" style="stop-color:#00AEEF"/>
		<stop  offset="0.1215" style="stop-color:#009DDE"/>
		<stop  offset="0.3737" style="stop-color:#007CBC"/>
		<stop  offset="0.7311" style="stop-color:#004D8F"/>
		<stop  offset="1" style="stop-color:#172671"/>
	</radialGradient>
	<path fill="url(#SVGID_20_)" d="M86.3,113.2c-24.4-29.2-53.6,10.4-73.8-5.7C31,128.4,61.4,92,86.3,113.2z"/>
	<radialGradient id="SVGID_21_" cx="46.3728" cy="82.4018" r="23.1446" gradientUnits="userSpaceOnUse">
		<stop  offset="0" style="stop-color:#80C342"/>
		<stop  offset="0.662" style="stop-color:#007B36"/>
		<stop  offset="1" style="stop-color:#005D2C"/>
	</radialGradient>
	<path fill="url(#SVGID_21_)" d="M44.3,82.8l-0.7-3.4c-1.8-7.3-5.5-10.8-16.2-11.6c3.5,2.9,5.3,6.6,9.1,13.1
		c2.4,3.3,5.6,3.1,7.9,4.9c0.4,0.4,1.1,1.4,1.3,1.9c0.1,0.7,0.2,1.5,0.2,2.3c-0.1,0-0.1,1.8-0.2,2.7c-0.1,0.5-0.1,1-0.2,1.6
		c0,0,0,0-0.1,0c0,0.3,0,0.5-0.1,0.8c0,0.3-0.1,0.7-0.1,1.1c0,0.1,0,0.2,0,0.3c0.5-0.3,1-0.5,1.6-0.7c0-0.3,0-0.6,0-0.9
		c0.4-3.7,1.5-6.1,2.2-6c6.6,1.2,11.3-3.3,15.5-13.2c1.7-4.1,3.4-6.6,5-7.6L65.6,68c-12.1,0.7-17.8,5.9-17.6,17.6
		c2.7-4.4,7-9.1,13.6-13.3c-6.3,4.5-12.6,12.4-14.6,17.1c0-1.4,0.1-2.5,0-3.3c-0.7-5.7-1.3-9.4-1.1-9.8c0.3-0.9,0.3-1.6,0.8-2.2
		c1.6-3.1,2.9-5.7,3.9-8.4c0.5-1.2,2-4.5,3.6-5.8c-5.3-0.1-8.1,2.9-8.3,9.1c0,1.4,0.5,3.4,0.3,4.6c-0.2,0.8-0.4,1.4-0.9,2
		c0-0.1-0.1-0.3-0.1-0.4c-0.3-1.6-1.3-2.9-1.4-3.7c-2.5-6.6,0.3-9.1-4.4-14.2c1.5,4.2,0.7,9.4,3.7,14.3c1.1,1.9,1.7,3.7,1.8,5.4
		c0.4,2.5,0.5,5.8,1.1,9.3c-0.4-0.3-0.8-0.8-1.1-1.3c-2-3.2-4.1-6.2-6.4-8.9C39.8,77.2,41.7,78.7,44.3,82.8z"/>
	<path fill="#BCBEC0" d="M91.1,102.3c-27.9-29-59.3,19.7-84.5-1.2C29.7,128.6,64,79.7,91.1,102.3z"/>
	<path fill="#BCBEC0" d="M86.3,113.2c-22.4-24.5-52.5,11-71.6-6.4C31.8,128.9,65.6,95.9,86.3,113.2z"/>
</g>
</svg>
